Playfair Display-Bold.ufo
<glyph name="numbersign" format="1">
  <advance width="609"/>
  <unicode hex="0023"/>
  <outline>
    <contour>
      <point x="437" y="602" type="line"/>
      <point x="340" y="101" type="line"/>
      <point x="360" y="101" type="line"/>
      <point x="457" y="602" type="line"/>
    </contour>
    <contour>
      <point x="38" y="267" type="line"/>
      <point x="34" y="247" type="line"/>
      <point x="535" y="247" type="line"/>
      <point x="539" y="267" type="line"/>
    </contour>
    <contour>
      <point x="250" y="602" type="line"/>
      <point x="153" y="101" type="line"/>
      <point x="173" y="101" type="line"/>
      <point x="270" y="602" type="line"/>
    </contour>
    <contour>
      <point x="74" y="454" type="line"/>
      <point x="71" y="434" type="line"/>
      <point x="572" y="434" type="line"/>
      <point x="575" y="454" type="line"/>
    </contour>
  </outline>
</glyph>
<glyph name="plus" format="1">
  <advance width="565"/>
  <unicode hex="002B"/>
  <outline>
    <contour>
      <point x="265" y="606" type="line"/>
      <point x="265" y="370" type="line"/>
      <point x="32" y="370" type="line"/>
      <point x="32" y="340" type="line"/>
      <point x="265" y="340" type="line"/>
      <point x="265" y="105" type="line"/>
      <point x="301" y="105" type="line"/>
      <point x="301" y="340" type="line"/>
      <point x="533" y="340" type="line"/>
      <point x="533" y="370" type="line"/>
      <point x="301" y="370" type="line"/>
      <point x="301" y="606" type="line"/>
    </contour>
  </outline>
</glyph>
<glyph name="three" format="1">
  <advance width="512"/>
  <unicode hex="0033"/>
  <outline>
    <contour>
      <point x="131" y="533"/>
      <point x="70" y="473"/>
      <point x="31" y="408" type="curve"/>
      <point x="49" y="398" type="line"/>
      <point x="80" y="444"/>
      <point x="127" y="469"/>
      <point x="178" y="469" type="curve" smooth="yes"/>
      <point x="234" y="469"/>
      <point x="268" y="441"/>
      <point x="268" y="382" type="curve" smooth="yes"/>
      <point x="268" y="338"/>
      <point x="249" y="293"/>
      <point x="191" y="255" type="curve"/>
      <point x="178" y="256"/>
      <point x="167" y="258"/>
      <point x="156" y="258" type="curve" smooth="yes"/>
      <point x="137" y="258"/>
      <point x="120" y="252"/>
      <point x="120" y="235" type="curve" smooth="yes"/>
      <point x="120" y="222"/>
      <point x="128" y="219"/>
      <point x="140" y="219" type="curve" smooth="yes"/>
      <point x="158" y="219"/>
      <point x="175" y="227"/>
      <point x="195" y="236" type="curve" smooth="yes"/>
      <point x="260" y="231"/>
      <point x="299" y="176"/>
      <point x="299" y="98" type="curve" smooth="yes"/>
      <point x="299" y="-50"/>
      <point x="141" y="-125"/>
      <point x="24" y="-130" type="curve"/>
      <point x="24" y="-151" type="line"/>
      <point x="239" y="-151"/>
      <point x="484" y="-55"/>
      <point x="484" y="99" type="curve" smooth="yes"/>
      <point x="484" y="203"/>
      <point x="373" y="262"/>
      <point x="209" y="252" type="curve"/>
      <point x="367" y="274"/>
      <point x="448" y="343"/>
      <point x="448" y="417" type="curve" smooth="yes"/>
      <point x="448" y="490"/>
      <point x="367" y="533"/>
      <point x="259" y="533" type="curve" smooth="yes"/>
    </contour>
  </outline>
</glyph>
<glyph name="four" format="1">
  <advance width="550"/>
  <unicode hex="0034"/>
  <outline>
    <contour>
      <point x="2" y="45" type="line"/>
      <point x="2" y="24" type="line"/>
      <point x="334" y="24" type="line" smooth="yes"/>
      <point x="394" y="24"/>
      <point x="505" y="23"/>
      <point x="523" y="19" type="curve"/>
      <point x="520" y="58"/>
      <point x="519" y="101"/>
      <point x="519" y="192" type="curve"/>
      <point x="496" y="192" type="line"/>
      <point x="491" y="161"/>
      <point x="484" y="151"/>
      <point x="429" y="151" type="curve" smooth="yes"/>
      <point x="102" y="151" type="line"/>
      <point x="79" y="105" type="line"/>
      <point x="411" y="507" type="line"/>
      <point x="407" y="533" type="line"/>
    </contour>
    <contour>
      <point x="407" y="533" type="line"/>
      <point x="283" y="368" type="line"/>
      <point x="283" y="-141" type="line"/>
      <point x="423" y="-141" type="line"/>
      <point x="423" y="533" type="line"/>
    </contour>
  </outline>
</glyph>
<glyph name="seven" format="1">
  <advance width="488"/>
  <unicode hex="0037"/>
  <outline>
    <contour>
      <point x="24" y="480"/>
      <point x="25" y="431"/>
      <point x="25" y="330" type="curve"/>
      <point x="48" y="330" type="line"/>
      <point x="53" y="361"/>
      <point x="60" y="371"/>
      <point x="115" y="371" type="curve" smooth="yes"/>
      <point x="410" y="371" type="line"/>
      <point x="429" y="407" type="line"/>
      <point x="344" y="292"/>
      <point x="137" y="117"/>
      <point x="137" y="-39" type="curve" smooth="yes"/>
      <point x="137" y="-105"/>
      <point x="166" y="-148"/>
      <point x="228" y="-148" type="curve" smooth="yes"/>
      <point x="292" y="-148"/>
      <point x="319" y="-103"/>
      <point x="319" y="-60" type="curve" smooth="yes"/>
      <point x="319" y="-42"/>
      <point x="314" y="22"/>
      <point x="314" y="22" type="curve" smooth="yes"/>
      <point x="314" y="228"/>
      <point x="441" y="387"/>
      <point x="492" y="497" type="curve"/>
      <point x="492" y="518" type="line"/>
      <point x="170" y="518" type="line" smooth="yes"/>
      <point x="110" y="518"/>
      <point x="39" y="519"/>
      <point x="21" y="523" type="curve"/>
    </contour>
  </outline>
</glyph>
<glyph name="eight" format="1">
  <advance width="588"/>
  <unicode hex="0038"/>
  <outline>
    <contour>
      <point x="183" y="722"/>
      <point x="70" y="673"/>
      <point x="70" y="555" type="curve" smooth="yes"/>
      <point x="70" y="360"/>
      <point x="379" y="276"/>
      <point x="379" y="96" type="curve" smooth="yes"/>
      <point x="379" y="46"/>
      <point x="355" y="4"/>
      <point x="294" y="4" type="curve" smooth="yes"/>
      <point x="211" y="4"/>
      <point x="185" y="82"/>
      <point x="185" y="179" type="curve" smooth="yes"/>
      <point x="185" y="229"/>
      <point x="192" y="289"/>
      <point x="219" y="330" type="curve"/>
      <point x="211" y="344" type="line"/>
      <point x="113" y="306"/>
      <point x="37" y="250"/>
      <point x="37" y="159" type="curve" smooth="yes"/>
      <point x="37" y="46"/>
      <point x="155" y="-14"/>
      <point x="289" y="-14" type="curve" smooth="yes"/>
      <point x="442" y="-14"/>
      <point x="554" y="65"/>
      <point x="554" y="173" type="curve" smooth="yes"/>
      <point x="554" y="355"/>
      <point x="238" y="475"/>
      <point x="238" y="637" type="curve" smooth="yes"/>
      <point x="238" y="676"/>
      <point x="256" y="704"/>
      <point x="295" y="704" type="curve" smooth="yes"/>
      <point x="346" y="704"/>
      <point x="378" y="658"/>
      <point x="378" y="575" type="curve" smooth="yes"/>
      <point x="378" y="545"/>
      <point x="374" y="480"/>
      <point x="357" y="444" type="curve"/>
      <point x="365" y="430" type="line"/>
      <point x="464" y="473"/>
      <point x="518" y="515"/>
      <point x="518" y="580" type="curve" smooth="yes"/>
      <point x="518" y="661"/>
      <point x="432" y="722"/>
      <point x="301" y="722" type="curve" smooth="yes"/>
    </contour>
  </outline>
</glyph>
<glyph name="C" format="1">
  <advance width="717"/>
  <unicode hex="0043"/>
  <outline>
    <contour>
      <point x="192" y="722"/>
      <point x="36" y="572"/>
      <point x="36" y="348" type="curve" smooth="yes"/>
      <point x="36" y="119"/>
      <point x="187" y="-14"/>
      <point x="413" y="-14" type="curve" smooth="yes"/>
      <point x="499" y="-14"/>
      <point x="549" y="16"/>
      <point x="598" y="51" type="curve" smooth="yes"/>
      <point x="627" y="70"/>
      <point x="638" y="57"/>
      <point x="643" y="0" type="curve"/>
      <point x="666" y="0" type="line"/>
      <point x="663" y="55"/>
      <point x="662" y="129"/>
      <point x="662" y="260" type="curve"/>
      <point x="639" y="260" type="line"/>
      <point x="630" y="151"/>
      <point x="614" y="84"/>
      <point x="547" y="43" type="curve" smooth="yes"/>
      <point x="519" y="25"/>
      <point x="487" y="13"/>
      <point x="454" y="13" type="curve" smooth="yes"/>
      <point x="301" y="13"/>
      <point x="266" y="202"/>
      <point x="266" y="352" type="curve" smooth="yes"/>
      <point x="266" y="502"/>
      <point x="301" y="691"/>
      <point x="454" y="691" type="curve" smooth="yes"/>
      <point x="487" y="691"/>
      <point x="519" y="679"/>
      <point x="547" y="661" type="curve" smooth="yes"/>
      <point x="614" y="617"/>
      <point x="630" y="554"/>
      <point x="639" y="458" type="curve"/>
      <point x="662" y="458" type="line"/>
      <point x="662" y="584"/>
      <point x="663" y="655"/>
      <point x="666" y="708" type="curve"/>
      <point x="643" y="708" type="line"/>
      <point x="638" y="651"/>
      <point x="624" y="637"/>
      <point x="598" y="657" type="curve" smooth="yes"/>
      <point x="554" y="691"/>
      <point x="502" y="722"/>
      <point x="414" y="722" type="curve" smooth="yes"/>
    </contour>
    <contour>
      <point x="389" y="708" type="move" name="top"/>
    </contour>
    <contour>
      <point x="417" y="0" type="move" name="bottom"/>
    </contour>
  </outline>
</glyph>
<glyph name="G" format="1">
  <advance width="756"/>
  <unicode hex="0047"/>
  <outline>
    <contour>
      <point x="196" y="722"/>
      <point x="36" y="572"/>
      <point x="36" y="348" type="curve" smooth="yes"/>
      <point x="36" y="120"/>
      <point x="161" y="-14"/>
      <point x="412" y="-14" type="curve" smooth="yes"/>
      <point x="469" y="-14"/>
      <point x="529" y="9"/>
      <point x="581" y="34" type="curve" smooth="yes"/>
      <point x="622" y="54"/>
      <point x="638" y="57"/>
      <point x="649" y="57" type="curve" smooth="yes"/>
      <point x="670" y="57"/>
      <point x="679" y="23"/>
      <point x="680" y="0" type="curve"/>
      <point x="700" y="0" type="line"/>
      <point x="700" y="198" type="line" smooth="yes"/>
      <point x="700" y="272"/>
      <point x="707" y="281"/>
      <point x="741" y="284" type="curve"/>
      <point x="741" y="304" type="line"/>
      <point x="707" y="302"/>
      <point x="651" y="301"/>
      <point x="587" y="301" type="curve" smooth="yes"/>
      <point x="527" y="301"/>
      <point x="441" y="302"/>
      <point x="396" y="304" type="curve"/>
      <point x="396" y="284" type="line"/>
      <point x="480" y="281"/>
      <point x="497" y="265"/>
      <point x="497" y="168" type="curve" smooth="yes"/>
      <point x="497" y="68" type="line" smooth="yes"/>
      <point x="497" y="44"/>
      <point x="490" y="28"/>
      <point x="476" y="18" type="curve" smooth="yes"/>
      <point x="464" y="10"/>
      <point x="448" y="6"/>
      <point x="427" y="6" type="curve" smooth="yes"/>
      <point x="330" y="6"/>
      <point x="266" y="112"/>
      <point x="266" y="352" type="curve" smooth="yes"/>
      <point x="266" y="502"/>
      <point x="310" y="691"/>
      <point x="464" y="691" type="curve" smooth="yes"/>
      <point x="499" y="691"/>
      <point x="539" y="680"/>
      <point x="567" y="661" type="curve" smooth="yes"/>
      <point x="633" y="616"/>
      <point x="650" y="554"/>
      <point x="659" y="458" type="curve"/>
      <point x="682" y="458" type="line"/>
      <point x="682" y="584"/>
      <point x="683" y="655"/>
      <point x="686" y="708" type="curve"/>
      <point x="663" y="708" type="line"/>
      <point x="659" y="667"/>
      <point x="652" y="648"/>
      <point x="638" y="648" type="curve" smooth="yes"/>
      <point x="632" y="648"/>
      <point x="625" y="651"/>
      <point x="618" y="657" type="curve" smooth="yes"/>
      <point x="573" y="693"/>
      <point x="517" y="722"/>
      <point x="424" y="722" type="curve" smooth="yes"/>
    </contour>
    <contour>
      <point x="403" y="708" type="move" name="top"/>
    </contour>
    <contour>
      <point x="419" y="0" type="move" name="bottom"/>
    </contour>
  </outline>
</glyph>
<glyph name="Z" format="1">
  <advance width="607"/>
  <unicode hex="005A"/>
  <outline>
    <contour>
      <point x="464" y="705"/>
      <point x="348" y="705"/>
      <point x="248" y="705" type="curve" smooth="yes"/>
      <point x="187" y="705"/>
      <point x="101" y="705"/>
      <point x="39" y="708" type="curve"/>
      <point x="44" y="641"/>
      <point x="46" y="573"/>
      <point x="46" y="540" type="curve" smooth="yes"/>
      <point x="46" y="512"/>
      <point x="45" y="485"/>
      <point x="43" y="468" type="curve"/>
      <point x="66" y="468" type="line"/>
      <point x="89" y="638"/>
      <point x="208" y="685"/>
      <point x="290" y="685" type="curve" smooth="yes"/>
      <point x="340" y="685" type="line"/>
      <point x="37" y="20" type="line"/>
      <point x="37" y="0" type="line"/>
      <point x="125" y="3"/>
      <point x="229" y="3"/>
      <point x="320" y="3" type="curve" smooth="yes"/>
      <point x="393" y="3"/>
      <point x="495" y="3"/>
      <point x="569" y="0" type="curve"/>
      <point x="562" y="66"/>
      <point x="562" y="135"/>
      <point x="562" y="168" type="curve" smooth="yes"/>
      <point x="562" y="204"/>
      <point x="563" y="236"/>
      <point x="565" y="260" type="curve"/>
      <point x="542" y="260" type="line"/>
      <point x="522" y="79"/>
      <point x="368" y="23"/>
      <point x="300" y="23" type="curve" smooth="yes"/>
      <point x="258" y="23" type="line"/>
      <point x="561" y="688" type="line"/>
      <point x="561" y="708" type="line"/>
    </contour>
    <contour>
      <point x="306" y="708" type="move" name="top"/>
    </contour>
    <contour>
      <point x="310" y="0" type="move" name="bottom"/>
    </contour>
  </outline>
</glyph>
<glyph name="bracketleft" format="1">
  <advance width="340"/>
  <unicode hex="005B"/>
  <outline>
    <contour>
      <point x="78" y="772" type="line"/>
      <point x="78" y="-181" type="line"/>
      <point x="299" y="-181" type="line"/>
      <point x="299" y="-162" type="line"/>
      <point x="258" y="-162" type="line"/>
      <point x="258" y="753" type="line"/>
      <point x="299" y="753" type="line"/>
      <point x="299" y="772" type="line"/>
    </contour>
  </outline>
</glyph>
<glyph name="asciicircum" format="1">
  <advance width="524"/>
  <unicode hex="005E"/>
  <outline>
    <contour>
      <point x="253" y="528" type="line"/>
      <point x="206" y="448"/>
      <point x="129" y="365"/>
      <point x="46" y="316" type="curve"/>
      <point x="54" y="302" type="line"/>
      <point x="126" y="316"/>
      <point x="200" y="340"/>
      <point x="242" y="362" type="curve"/>
      <point x="292" y="340"/>
      <point x="382" y="316"/>
      <point x="470" y="302" type="curve"/>
      <point x="478" y="316" type="line"/>
      <point x="394" y="366"/>
      <point x="316" y="449"/>
      <point x="271" y="528" type="curve"/>
    </contour>
  </outline>
</glyph>
<glyph name="j" format="1">
  <advance width="317"/>
  <unicode hex="006A"/>
  <outline>
    <contour>
      <point x="204" y="520"/>
      <point x="147" y="516"/>
      <point x="80" y="516" type="curve" smooth="yes"/>
      <point x="60" y="516"/>
      <point x="39" y="517"/>
      <point x="18" y="519" type="curve"/>
      <point x="18" y="498" type="line"/>
      <point x="60" y="498"/>
      <point x="74" y="470"/>
      <point x="74" y="410" type="curve" smooth="yes"/>
      <point x="74" y="80" type="line" smooth="yes"/>
      <point x="74" y="-53"/>
      <point x="74" y="-106"/>
      <point x="56" y="-136" type="curve" smooth="yes"/>
      <point x="43" y="-157"/>
      <point x="16" y="-168"/>
      <point x="-11" y="-168" type="curve" smooth="yes"/>
      <point x="-19" y="-168"/>
      <point x="-29" y="-167"/>
      <point x="-38" y="-166" type="curve"/>
      <point x="3" y="-151"/>
      <point x="20" y="-120"/>
      <point x="20" y="-91" type="curve" smooth="yes"/>
      <point x="20" y="-42"/>
      <point x="-15" y="-17"/>
      <point x="-70" y="-17" type="curve" smooth="yes"/>
      <point x="-129" y="-17"/>
      <point x="-168" y="-47"/>
      <point x="-168" y="-94" type="curve" smooth="yes"/>
      <point x="-168" y="-126"/>
      <point x="-149" y="-154"/>
      <point x="-117" y="-168" type="curve" smooth="yes"/>
      <point x="-79" y="-185"/>
      <point x="-41" y="-188"/>
      <point x="-6" y="-188" type="curve" smooth="yes"/>
      <point x="92" y="-188"/>
      <point x="150" y="-167"/>
      <point x="183" y="-138" type="curve" smooth="yes"/>
      <point x="235" y="-93"/>
      <point x="254" y="-38"/>
      <point x="254" y="80" type="curve" smooth="yes"/>
      <point x="254" y="530" type="line"/>
    </contour>
    <contour>
      <point x="91" y="782"/>
      <point x="52" y="753"/>
      <point x="52" y="696" type="curve" smooth="yes"/>
      <point x="52" y="639"/>
      <point x="91" y="610"/>
      <point x="161" y="610" type="curve" smooth="yes"/>
      <point x="230" y="610"/>
      <point x="270" y="639"/>
      <point x="270" y="696" type="curve" smooth="yes"/>
      <point x="270" y="753"/>
      <point x="230" y="782"/>
      <point x="161" y="782" type="curve" smooth="yes"/>
    </contour>
    <contour>
      <point x="166" y="514" type="move" name="top"/>
    </contour>
  </outline>
</glyph>
<glyph name="asciitilde" format="1">
  <advance width="681"/>
  <unicode hex="007E"/>
  <outline>
    <contour>
      <point x="131" y="405"/>
      <point x="60" y="331"/>
      <point x="50" y="217" type="curve"/>
      <point x="68" y="214" type="line"/>
      <point x="90" y="271"/>
      <point x="130" y="292"/>
      <point x="178" y="292" type="curve" smooth="yes"/>
      <point x="286" y="292"/>
      <point x="358" y="195"/>
      <point x="472" y="195" type="curve" smooth="yes"/>
      <point x="553" y="195"/>
      <point x="624" y="269"/>
      <point x="634" y="383" type="curve"/>
      <point x="616" y="386" type="line"/>
      <point x="594" y="329"/>
      <point x="554" y="308"/>
      <point x="506" y="308" type="curve" smooth="yes"/>
      <point x="398" y="308"/>
      <point x="326" y="405"/>
      <point x="212" y="405" type="curve" smooth="yes"/>
    </contour>
  </outline>
</glyph>
<glyph name="section" format="1">
  <advance width="630"/>
  <unicode hex="00A7"/>
  <outline>
    <contour>
      <point x="195" y="782"/>
      <point x="86" y="715"/>
      <point x="86" y="608" type="curve" smooth="yes"/>
      <point x="86" y="524"/>
      <point x="143" y="470"/>
      <point x="281" y="380" type="curve" smooth="yes"/>
      <point x="420" y="290"/>
      <point x="455" y="259"/>
      <point x="455" y="204" type="curve" smooth="yes"/>
      <point x="455" y="158"/>
      <point x="440" y="141"/>
      <point x="411" y="115" type="curve"/>
      <point x="420" y="105" type="line"/>
      <point x="552" y="159"/>
      <point x="599" y="216"/>
      <point x="599" y="290" type="curve" smooth="yes"/>
      <point x="599" y="380"/>
      <point x="530" y="428"/>
      <point x="412" y="507" type="curve" smooth="yes"/>
      <point x="305" y="579"/>
      <point x="256" y="597"/>
      <point x="256" y="677" type="curve" smooth="yes"/>
      <point x="256" y="722"/>
      <point x="283" y="763"/>
      <point x="357" y="763" type="curve" smooth="yes"/>
      <point x="388" y="763"/>
      <point x="416" y="754"/>
      <point x="422" y="749" type="curve"/>
      <point x="389" y="735"/>
      <point x="366" y="700"/>
      <point x="366" y="661" type="curve" smooth="yes"/>
      <point x="366" y="614"/>
      <point x="401" y="581"/>
      <point x="456" y="581" type="curve" smooth="yes"/>
      <point x="509" y="581"/>
      <point x="544" y="619"/>
      <point x="544" y="662" type="curve" smooth="yes"/>
      <point x="544" y="712"/>
      <point x="521" y="737"/>
      <point x="485" y="756" type="curve" smooth="yes"/>
      <point x="461" y="768"/>
      <point x="416" y="782"/>
      <point x="348" y="782" type="curve" smooth="yes"/>
    </contour>
    <contour>
      <point x="79" y="435"/>
      <point x="32" y="378"/>
      <point x="32" y="304" type="curve" smooth="yes"/>
      <point x="32" y="214"/>
      <point x="101" y="166"/>
      <point x="219" y="87" type="curve" smooth="yes"/>
      <point x="326" y="15"/>
      <point x="375" y="-3"/>
      <point x="375" y="-83" type="curve" smooth="yes"/>
      <point x="375" y="-128"/>
      <point x="348" y="-169"/>
      <point x="274" y="-169" type="curve" smooth="yes"/>
      <point x="243" y="-169"/>
      <point x="215" y="-160"/>
      <point x="209" y="-155" type="curve"/>
      <point x="242" y="-141"/>
      <point x="265" y="-106"/>
      <point x="265" y="-67" type="curve" smooth="yes"/>
      <point x="265" y="-20"/>
      <point x="230" y="13"/>
      <point x="175" y="13" type="curve" smooth="yes"/>
      <point x="122" y="13"/>
      <point x="87" y="-25"/>
      <point x="87" y="-68" type="curve" smooth="yes"/>
      <point x="87" y="-118"/>
      <point x="110" y="-143"/>
      <point x="146" y="-162" type="curve" smooth="yes"/>
      <point x="170" y="-174"/>
      <point x="215" y="-188"/>
      <point x="283" y="-188" type="curve" smooth="yes"/>
      <point x="436" y="-188"/>
      <point x="545" y="-121"/>
      <point x="545" y="-14" type="curve" smooth="yes"/>
      <point x="545" y="70"/>
      <point x="488" y="124"/>
      <point x="350" y="214" type="curve" smooth="yes"/>
      <point x="211" y="304"/>
      <point x="176" y="335"/>
      <point x="176" y="390" type="curve" smooth="yes"/>
      <point x="176" y="436"/>
      <point x="191" y="453"/>
      <point x="220" y="479" type="curve"/>
      <point x="211" y="489" type="line"/>
    </contour>
  </outline>
</glyph>
<glyph name="copyright" format="1">
  <advance width="872"/>
  <unicode hex="00A9"/>
  <outline>
    <contour>
      <point x="216" y="782"/>
      <point x="38" y="604"/>
      <point x="38" y="384" type="curve" smooth="yes"/>
      <point x="38" y="164"/>
      <point x="216" y="-14"/>
      <point x="436" y="-14" type="curve" smooth="yes"/>
      <point x="656" y="-14"/>
      <point x="834" y="164"/>
      <point x="834" y="384" type="curve" smooth="yes"/>
      <point x="834" y="604"/>
      <point x="656" y="782"/>
      <point x="436" y="782" type="curve" smooth="yes"/>
    </contour>
    <contour>
      <point x="317" y="658"/>
      <point x="205" y="576"/>
      <point x="205" y="384" type="curve" smooth="yes"/>
      <point x="205" y="182"/>
      <point x="312" y="111"/>
      <point x="446" y="111" type="curve" smooth="yes"/>
      <point x="565" y="111"/>
      <point x="630" y="200"/>
      <point x="655" y="281" type="curve"/>
      <point x="638" y="287" type="line"/>
      <point x="594" y="199"/>
      <point x="544" y="190"/>
      <point x="517" y="190" type="curve" smooth="yes"/>
      <point x="458" y="190"/>
      <point x="392" y="233"/>
      <point x="392" y="398" type="curve" smooth="yes"/>
      <point x="392" y="563"/>
      <point x="419" y="615"/>
      <point x="461" y="628" type="curve" smooth="yes"/>
      <point x="471" y="631"/>
      <point x="481" y="632"/>
      <point x="491" y="632" type="curve" smooth="yes"/>
      <point x="514" y="632"/>
      <point x="536" y="625"/>
      <point x="548" y="617" type="curve"/>
      <point x="504" y="605"/>
      <point x="466" y="567"/>
      <point x="466" y="517" type="curve" smooth="yes"/>
      <point x="466" y="464"/>
      <point x="499" y="427"/>
      <point x="558" y="427" type="curve" smooth="yes"/>
      <point x="614" y="427"/>
      <point x="654" y="469"/>
      <point x="654" y="524" type="curve" smooth="yes"/>
      <point x="654" y="570"/>
      <point x="629" y="606"/>
      <point x="594" y="628" type="curve"/>
      <point x="567" y="643"/>
      <point x="520" y="658"/>
      <point x="462" y="658" type="curve" smooth="yes"/>
    </contour>
    <contour>
      <point x="634" y="750"/>
      <point x="794" y="586"/>
      <point x="794" y="384" type="curve" smooth="yes"/>
      <point x="794" y="182"/>
      <point x="634" y="18"/>
      <point x="436" y="18" type="curve" smooth="yes"/>
      <point x="238" y="18"/>
      <point x="78" y="182"/>
      <point x="78" y="384" type="curve" smooth="yes"/>
      <point x="78" y="586"/>
      <point x="238" y="750"/>
      <point x="436" y="750" type="curve" smooth="yes"/>
    </contour>
  </outline>
</glyph>
<glyph name="logicalnot" format="1">
  <advance width="632"/>
  <unicode hex="00AC"/>
  <outline>
    <contour>
      <point x="68" y="370" type="line"/>
      <point x="68" y="340" type="line"/>
      <point x="533" y="340" type="line"/>
      <point x="533" y="165" type="line"/>
      <point x="569" y="165" type="line"/>
      <point x="569" y="370" type="line"/>
    </contour>
  </outline>
</glyph>
<glyph name="degree" format="1">
  <advance width="297"/>
  <unicode hex="00B0"/>
  <outline>
    <contour>
      <point x="84" y="820"/>
      <point x="27" y="774"/>
      <point x="27" y="700" type="curve" smooth="yes"/>
      <point x="27" y="625"/>
      <point x="84" y="579"/>
      <point x="148" y="579" type="curve" smooth="yes"/>
      <point x="213" y="579"/>
      <point x="270" y="625"/>
      <point x="270" y="700" type="curve" smooth="yes"/>
      <point x="270" y="774"/>
      <point x="213" y="820"/>
      <point x="148" y="820" type="curve" smooth="yes"/>
    </contour>
    <contour>
      <point x="193" y="803"/>
      <point x="245" y="767"/>
      <point x="245" y="699" type="curve" smooth="yes"/>
      <point x="245" y="629"/>
      <point x="193" y="596"/>
      <point x="148" y="596" type="curve" smooth="yes"/>
      <point x="103" y="596"/>
      <point x="52" y="629"/>
      <point x="52" y="699" type="curve" smooth="yes"/>
      <point x="52" y="767"/>
      <point x="103" y="803"/>
      <point x="148" y="803" type="curve" smooth="yes"/>
    </contour>
  </outline>
</glyph>
<glyph name="eth" format="1">
  <advance width="575"/>
  <unicode hex="00F0"/>
  <outline>
    <contour>
      <point x="128" y="765" type="line"/>
      <point x="326" y="669"/>
      <point x="359" y="503"/>
      <point x="359" y="298" type="curve" smooth="yes"/>
      <point x="359" y="78"/>
      <point x="329" y="4"/>
      <point x="289" y="4" type="curve" smooth="yes"/>
      <point x="249" y="4"/>
      <point x="219" y="81"/>
      <point x="219" y="260" type="curve" smooth="yes"/>
      <point x="219" y="429"/>
      <point x="249" y="508"/>
      <point x="311" y="508" type="curve" smooth="yes"/>
      <point x="330" y="508"/>
      <point x="353" y="501"/>
      <point x="370" y="486" type="curve"/>
      <point x="381" y="489" type="line"/>
      <point x="350" y="520"/>
      <point x="312" y="533"/>
      <point x="265" y="533" type="curve" smooth="yes"/>
      <point x="142" y="533"/>
      <point x="31" y="463"/>
      <point x="32" y="244" type="curve" smooth="yes"/>
      <point x="33" y="50"/>
      <point x="137" y="-16"/>
      <point x="289" y="-16" type="curve" smooth="yes"/>
      <point x="444" y="-16"/>
      <point x="543" y="83"/>
      <point x="543" y="306" type="curve" smooth="yes"/>
      <point x="543" y="549"/>
      <point x="360" y="713"/>
      <point x="136" y="782" type="curve"/>
    </contour>
    <contour>
      <point x="111" y="602" type="line"/>
      <point x="120" y="584" type="line"/>
      <point x="319" y="681" type="line"/>
      <point x="302" y="695" type="line"/>
    </contour>
    <contour>
      <point x="302" y="695" type="line"/>
      <point x="319" y="681" type="line"/>
      <point x="467" y="753" type="line"/>
      <point x="458" y="771" type="line"/>
    </contour>
  </outline>
</glyph>
<glyph name="divide" format="1">
  <advance width="623"/>
  <unicode hex="00F7"/>
  <outline>
    <contour>
      <point x="283" y="266"/>
      <point x="258" y="241"/>
      <point x="258" y="211" type="curve" smooth="yes"/>
      <point x="258" y="180"/>
      <point x="283" y="155"/>
      <point x="313" y="155" type="curve" smooth="yes"/>
      <point x="344" y="155"/>
      <point x="369" y="180"/>
      <point x="369" y="211" type="curve" smooth="yes"/>
      <point x="369" y="241"/>
      <point x="344" y="266"/>
      <point x="313" y="266" type="curve" smooth="yes"/>
    </contour>
    <contour>
      <point x="283" y="554"/>
      <point x="258" y="529"/>
      <point x="258" y="499" type="curve" smooth="yes"/>
      <point x="258" y="468"/>
      <point x="283" y="444"/>
      <point x="313" y="444" type="curve" smooth="yes"/>
      <point x="344" y="444"/>
      <point x="369" y="468"/>
      <point x="369" y="499" type="curve" smooth="yes"/>
      <point x="369" y="529"/>
      <point x="344" y="554"/>
      <point x="313" y="554" type="curve" smooth="yes"/>
    </contour>
    <component base="minus" xOffset="1"/>
  </outline>
</glyph>
<glyph name="imacron" format="1">
  <advance width="330"/>
  <unicode hex="012B"/>
  <outline>
    <contour>
      <point x="-9" y="712" type="line"/>
      <point x="-9" y="687" type="line"/>
      <point x="323" y="687" type="line"/>
      <point x="323" y="712" type="line"/>
    </contour>
    <component base="dotlessi"/>
  </outline>
</glyph>
<glyph name="tbar" format="1">
  <advance width="353"/>
  <unicode hex="0167"/>
  <outline>
    <contour>
      <point x="-2" y="421" type="line"/>
      <point x="-2" y="401" type="line"/>
      <point x="352" y="401" type="line"/>
      <point x="352" y="421" type="line"/>
    </contour>
    <component base="t" xOffset="2"/>
  </outline>
</glyph>
<glyph name="florin" format="1">
  <advance width="612"/>
  <unicode hex="0192"/>
  <outline>
    <contour>
      <point x="352" y="782"/>
      <point x="291" y="761"/>
      <point x="258" y="732" type="curve" smooth="yes"/>
      <point x="206" y="687"/>
      <point x="187" y="632"/>
      <point x="187" y="514" type="curve" smooth="yes"/>
      <point x="187" y="80" type="line" smooth="yes"/>
      <point x="187" y="-53"/>
      <point x="187" y="-106"/>
      <point x="169" y="-136" type="curve" smooth="yes"/>
      <point x="156" y="-157"/>
      <point x="129" y="-168"/>
      <point x="102" y="-168" type="curve" smooth="yes"/>
      <point x="94" y="-168"/>
      <point x="84" y="-167"/>
      <point x="75" y="-166" type="curve"/>
      <point x="116" y="-151"/>
      <point x="133" y="-120"/>
      <point x="133" y="-91" type="curve" smooth="yes"/>
      <point x="133" y="-42"/>
      <point x="98" y="-17"/>
      <point x="43" y="-17" type="curve" smooth="yes"/>
      <point x="-16" y="-17"/>
      <point x="-55" y="-47"/>
      <point x="-55" y="-94" type="curve" smooth="yes"/>
      <point x="-55" y="-175"/>
      <point x="50" y="-188"/>
      <point x="107" y="-188" type="curve" smooth="yes"/>
      <point x="205" y="-188"/>
      <point x="263" y="-167"/>
      <point x="296" y="-138" type="curve" smooth="yes"/>
      <point x="348" y="-93"/>
      <point x="367" y="-38"/>
      <point x="367" y="80" type="curve" smooth="yes"/>
      <point x="367" y="514" type="line" smooth="yes"/>
      <point x="367" y="647"/>
      <point x="367" y="700"/>
      <point x="385" y="730" type="curve" smooth="yes"/>
      <point x="398" y="751"/>
      <point x="425" y="762"/>
      <point x="447" y="762" type="curve" smooth="yes"/>
      <point x="466" y="762"/>
      <point x="480" y="758"/>
      <point x="486" y="753" type="curve"/>
      <point x="445" y="738"/>
      <point x="421" y="704"/>
      <point x="421" y="661" type="curve" smooth="yes"/>
      <point x="421" y="614"/>
      <point x="456" y="581"/>
      <point x="511" y="581" type="curve" smooth="yes"/>
      <point x="564" y="581"/>
      <point x="599" y="619"/>
      <point x="599" y="668" type="curve" smooth="yes"/>
      <point x="599" y="762"/>
      <point x="486" y="782"/>
      <point x="417" y="782" type="curve" smooth="yes"/>
    </contour>
    <contour>
      <point x="41" y="518" type="line"/>
      <point x="41" y="498" type="line"/>
      <point x="558" y="498" type="line"/>
      <point x="558" y="518" type="line"/>
    </contour>
  </outline>
</glyph>
<glyph name="mu" format="1">
  <advance width="724"/>
  <unicode hex="03BC"/>
  <outline>
    <contour>
      <point x="253" y="529"/>
      <point x="191" y="510"/>
      <point x="191" y="435" type="curve" smooth="yes"/>
      <point x="191" y="394"/>
      <point x="220" y="361"/>
      <point x="242" y="225" type="curve"/>
      <point x="252" y="225" type="line"/>
      <point x="290" y="370"/>
      <point x="363" y="391"/>
      <point x="374" y="447" type="curve" smooth="yes"/>
      <point x="386" y="504"/>
      <point x="343" y="529"/>
      <point x="296" y="529" type="curve" smooth="yes"/>
    </contour>
    <contour>
      <point x="24" y="-165"/>
      <point x="53" y="-188"/>
      <point x="94" y="-188" type="curve" smooth="yes"/>
      <point x="145" y="-188"/>
      <point x="184" y="-161"/>
      <point x="201" y="-132" type="curve" smooth="yes"/>
      <point x="223" y="-96"/>
      <point x="225" y="-43"/>
      <point x="236" y="133" type="curve"/>
      <point x="240" y="165"/>
      <point x="244" y="196"/>
      <point x="248" y="228" type="curve"/>
      <point x="239" y="246" type="line"/>
      <point x="212" y="89"/>
      <point x="156" y="30"/>
      <point x="108" y="-9" type="curve" smooth="yes"/>
      <point x="62" y="-45"/>
      <point x="24" y="-78"/>
      <point x="24" y="-125" type="curve" smooth="yes"/>
    </contour>
    <contour>
      <point x="244" y="298" type="line"/>
      <point x="234" y="155" type="line" smooth="yes"/>
      <point x="230" y="92"/>
      <point x="249" y="-14"/>
      <point x="311" y="-14" type="curve" smooth="yes"/>
      <point x="430" y="-14"/>
      <point x="487" y="186"/>
      <point x="504" y="270" type="curve"/>
      <point x="485" y="274" type="line"/>
      <point x="451" y="207"/>
      <point x="401" y="183"/>
      <point x="328" y="183" type="curve" smooth="yes"/>
      <point x="290" y="183"/>
      <point x="254" y="201"/>
      <point x="249" y="258" type="curve"/>
      <point x="263" y="298" type="line"/>
    </contour>
    <contour>
      <point x="509" y="529"/>
      <point x="453" y="510"/>
      <point x="453" y="435" type="curve" smooth="yes"/>
      <point x="453" y="409"/>
      <point x="472" y="375"/>
      <point x="486" y="265" type="curve"/>
      <point x="501" y="255" type="line"/>
      <point x="542" y="379"/>
      <point x="625" y="394"/>
      <point x="636" y="447" type="curve" smooth="yes"/>
      <point x="647" y="504"/>
      <point x="601" y="529"/>
      <point x="548" y="529" type="curve" smooth="yes"/>
    </contour>
    <contour>
      <point x="472" y="120" type="line" smooth="yes"/>
      <point x="463" y="51"/>
      <point x="470" y="-14"/>
      <point x="532" y="-14" type="curve" smooth="yes"/>
      <point x="627" y="-14"/>
      <point x="679" y="186"/>
      <point x="692" y="270" type="curve"/>
      <point x="673" y="274" type="line"/>
      <point x="647" y="207"/>
      <point x="612" y="183"/>
      <point x="559" y="183" type="curve" smooth="yes"/>
      <point x="519" y="183"/>
      <point x="491" y="202"/>
      <point x="506" y="276" type="curve"/>
      <point x="488" y="300" type="line"/>
    </contour>
  </outline>
</glyph>
<glyph name="uni0415" format="1">
  <advance width="650"/>
  <unicode hex="0415"/>
  <outline>
    <component base="E"/>
    <contour>
      <point x="325" y="708" type="move" name="top"/>
    </contour>
  </outline>
</glyph>
<glyph name="uni041F" format="1">
  <advance width="829"/>
  <unicode hex="041F"/>
  <outline>
    <contour>
      <point x="763" y="706"/>
      <point x="695" y="705"/>
      <point x="623" y="705" type="curve" smooth="yes"/>
      <point x="545" y="705"/>
      <point x="463" y="708"/>
      <point x="416" y="708" type="curve" smooth="yes"/>
      <point x="369" y="708"/>
      <point x="284" y="705"/>
      <point x="206" y="705" type="curve" smooth="yes"/>
      <point x="134" y="705"/>
      <point x="66" y="706"/>
      <point x="28" y="708" type="curve"/>
      <point x="28" y="688" type="line"/>
      <point x="88" y="685"/>
      <point x="99" y="675"/>
      <point x="99" y="602" type="curve" smooth="yes"/>
      <point x="99" y="106" type="line" smooth="yes"/>
      <point x="99" y="33"/>
      <point x="88" y="23"/>
      <point x="28" y="20" type="curve"/>
      <point x="28" y="0" type="line"/>
      <point x="66" y="2"/>
      <point x="134" y="3"/>
      <point x="206" y="3" type="curve" smooth="yes"/>
      <point x="268" y="3"/>
      <point x="334" y="2"/>
      <point x="373" y="0" type="curve"/>
      <point x="373" y="20" type="line"/>
      <point x="313" y="23"/>
      <point x="302" y="33"/>
      <point x="302" y="106" type="curve" smooth="yes"/>
      <point x="302" y="602" type="line" smooth="yes"/>
      <point x="302" y="675"/>
      <point x="315" y="688"/>
      <point x="383" y="688" type="curve" smooth="yes"/>
      <point x="446" y="688" type="line" smooth="yes"/>
      <point x="514" y="688"/>
      <point x="527" y="675"/>
      <point x="527" y="602" type="curve" smooth="yes"/>
      <point x="527" y="106" type="line" smooth="yes"/>
      <point x="527" y="33"/>
      <point x="516" y="23"/>
      <point x="456" y="20" type="curve"/>
      <point x="456" y="0" type="line"/>
      <point x="495" y="2"/>
      <point x="561" y="3"/>
      <point x="623" y="3" type="curve" smooth="yes"/>
      <point x="695" y="3"/>
      <point x="763" y="2"/>
      <point x="801" y="0" type="curve"/>
      <point x="801" y="20" type="line"/>
      <point x="741" y="23"/>
      <point x="730" y="33"/>
      <point x="730" y="106" type="curve" smooth="yes"/>
      <point x="730" y="602" type="line" smooth="yes"/>
      <point x="730" y="675"/>
      <point x="741" y="685"/>
      <point x="801" y="688" type="curve"/>
      <point x="801" y="708" type="line"/>
    </contour>
  </outline>
</glyph>
<glyph name="uni0426" format="1">
  <advance width="839"/>
  <unicode hex="0426"/>
  <outline>
    <contour>
      <point x="763" y="706"/>
      <point x="695" y="705"/>
      <point x="623" y="705" type="curve" smooth="yes"/>
      <point x="561" y="705"/>
      <point x="495" y="706"/>
      <point x="456" y="708" type="curve"/>
      <point x="456" y="688" type="line"/>
      <point x="516" y="685"/>
      <point x="527" y="675"/>
      <point x="527" y="602" type="curve" smooth="yes"/>
      <point x="527" y="106" type="line" smooth="yes"/>
      <point x="527" y="33"/>
      <point x="514" y="20"/>
      <point x="446" y="20" type="curve" smooth="yes"/>
      <point x="383" y="20" type="line" smooth="yes"/>
      <point x="315" y="20"/>
      <point x="302" y="33"/>
      <point x="302" y="106" type="curve" smooth="yes"/>
      <point x="302" y="602" type="line" smooth="yes"/>
      <point x="302" y="675"/>
      <point x="313" y="685"/>
      <point x="373" y="688" type="curve"/>
      <point x="373" y="708" type="line"/>
      <point x="334" y="706"/>
      <point x="268" y="705"/>
      <point x="206" y="705" type="curve" smooth="yes"/>
      <point x="134" y="705"/>
      <point x="66" y="706"/>
      <point x="28" y="708" type="curve"/>
      <point x="28" y="688" type="line"/>
      <point x="88" y="685"/>
      <point x="99" y="675"/>
      <point x="99" y="602" type="curve" smooth="yes"/>
      <point x="99" y="106" type="line" smooth="yes"/>
      <point x="99" y="33"/>
      <point x="88" y="23"/>
      <point x="28" y="20" type="curve"/>
      <point x="28" y="0" type="line"/>
      <point x="66" y="2"/>
      <point x="134" y="3"/>
      <point x="206" y="3" type="curve" smooth="yes"/>
      <point x="284" y="3"/>
      <point x="366" y="0"/>
      <point x="413" y="0" type="curve" smooth="yes"/>
      <point x="479" y="0"/>
      <point x="544" y="0"/>
      <point x="610" y="0" type="curve" smooth="yes"/>
      <point x="696" y="0"/>
      <point x="778" y="-43"/>
      <point x="804" y="-185" type="curve"/>
      <point x="827" y="-185" type="line"/>
      <point x="825" y="-168"/>
      <point x="824" y="-146"/>
      <point x="824" y="-118" type="curve" smooth="yes"/>
      <point x="824" y="-91"/>
      <point x="826" y="-35"/>
      <point x="831" y="20" type="curve"/>
      <point x="801" y="20" type="line" smooth="yes"/>
      <point x="741" y="20"/>
      <point x="730" y="33"/>
      <point x="730" y="106" type="curve" smooth="yes"/>
      <point x="730" y="602" type="line" smooth="yes"/>
      <point x="730" y="675"/>
      <point x="741" y="685"/>
      <point x="801" y="688" type="curve"/>
      <point x="801" y="708" type="line"/>
    </contour>
  </outline>
</glyph>
<glyph name="uni042F" format="1">
  <advance width="727"/>
  <unicode hex="042F"/>
  <outline>
    <contour>
      <point x="661" y="706"/>
      <point x="591" y="705"/>
      <point x="527" y="705" type="curve" smooth="yes"/>
      <point x="460" y="705"/>
      <point x="392" y="707"/>
      <point x="366" y="707" type="curve" smooth="yes"/>
      <point x="163" y="707"/>
      <point x="65" y="648"/>
      <point x="65" y="523" type="curve" smooth="yes"/>
      <point x="65" y="419"/>
      <point x="133" y="336"/>
      <point x="388" y="336" type="curve" smooth="yes"/>
      <point x="484" y="336" type="line"/>
      <point x="484" y="336"/>
      <point x="484" y="356"/>
      <point x="484" y="356" type="curve"/>
      <point x="398" y="356" type="line" smooth="yes"/>
      <point x="296" y="356"/>
      <point x="275" y="430"/>
      <point x="275" y="522" type="curve" smooth="yes"/>
      <point x="275" y="627"/>
      <point x="300" y="688"/>
      <point x="371" y="688" type="curve" smooth="yes"/>
      <point x="416" y="688"/>
      <point x="425" y="671"/>
      <point x="425" y="602" type="curve" smooth="yes"/>
      <point x="425" y="106" type="line" smooth="yes"/>
      <point x="425" y="33"/>
      <point x="414" y="23"/>
      <point x="354" y="20" type="curve"/>
      <point x="354" y="0" type="line"/>
      <point x="393" y="2"/>
      <point x="459" y="3"/>
      <point x="521" y="3" type="curve" smooth="yes"/>
      <point x="593" y="3"/>
      <point x="661" y="2"/>
      <point x="699" y="0" type="curve"/>
      <point x="699" y="20" type="line"/>
      <point x="638" y="23"/>
      <point x="628" y="33"/>
      <point x="628" y="106" type="curve" smooth="yes"/>
      <point x="628" y="602" type="line" smooth="yes"/>
      <point x="628" y="675"/>
      <point x="639" y="685"/>
      <point x="699" y="688" type="curve"/>
      <point x="699" y="708" type="line"/>
    </contour>
    <contour>
      <point x="373" y="348"/>
      <point x="344" y="345"/>
      <point x="307" y="339" type="curve" smooth="yes"/>
      <point x="176" y="324"/>
      <point x="101" y="295"/>
      <point x="85" y="209" type="curve" smooth="yes"/>
      <point x="66" y="105" type="line" smooth="yes"/>
      <point x="57" y="55"/>
      <point x="44" y="40"/>
      <point x="21" y="40" type="curve" smooth="yes"/>
      <point x="8" y="40"/>
      <point x="-1" y="44"/>
      <point x="-10" y="53" type="curve"/>
      <point x="-23" y="40" type="line"/>
      <point x="15" y="-1"/>
      <point x="64" y="-14"/>
      <point x="123" y="-14" type="curve" smooth="yes"/>
      <point x="208" y="-14"/>
      <point x="263" y="12"/>
      <point x="275" y="94" type="curve" smooth="yes"/>
      <point x="290" y="194" type="line" smooth="yes"/>
      <point x="302" y="276"/>
      <point x="319" y="336"/>
      <point x="370" y="336" type="curve" smooth="yes"/>
      <point x="478" y="336" type="line"/>
      <point x="480" y="353" type="line"/>
    </contour>
  </outline>
</glyph>
<glyph name="uni0432" format="1">
  <advance width="591"/>
  <unicode hex="0432"/>
  <outline>
    <contour>
      <point x="294" y="518"/>
      <point x="229" y="514"/>
      <point x="161" y="514" type="curve" smooth="yes"/>
      <point x="109" y="514"/>
      <point x="48" y="517"/>
      <point x="21" y="518" type="curve"/>
      <point x="21" y="497" type="line"/>
      <point x="62" y="497"/>
      <point x="77" y="481"/>
      <point x="77" y="425" type="curve" smooth="yes"/>
      <point x="77" y="93" type="line" smooth="yes"/>
      <point x="77" y="37"/>
      <point x="62" y="21"/>
      <point x="21" y="21" type="curve"/>
      <point x="21" y="0" type="line"/>
      <point x="50" y="1"/>
      <point x="115" y="4"/>
      <point x="171" y="4" type="curve" smooth="yes"/>
      <point x="243" y="4"/>
      <point x="317" y="0"/>
      <point x="360" y="0" type="curve" smooth="yes"/>
      <point x="512" y="0"/>
      <point x="563" y="51"/>
      <point x="563" y="134" type="curve" smooth="yes"/>
      <point x="563" y="223"/>
      <point x="504" y="269"/>
      <point x="327" y="269" type="curve"/>
      <point x="304" y="271" type="line"/>
      <point x="175" y="271" type="line"/>
      <point x="175" y="271"/>
      <point x="175" y="251"/>
      <point x="175" y="251" type="curve"/>
      <point x="267" y="251" type="line" smooth="yes"/>
      <point x="348" y="251"/>
      <point x="379" y="216"/>
      <point x="379" y="133" type="curve" smooth="yes"/>
      <point x="379" y="77"/>
      <point x="365" y="21"/>
      <point x="297" y="21" type="curve" smooth="yes"/>
      <point x="267" y="21"/>
      <point x="257" y="32"/>
      <point x="257" y="93" type="curve" smooth="yes"/>
      <point x="257" y="425" type="line" smooth="yes"/>
      <point x="257" y="485"/>
      <point x="266" y="497"/>
      <point x="294" y="497" type="curve" smooth="yes"/>
      <point x="352" y="497"/>
      <point x="363" y="447"/>
      <point x="363" y="388" type="curve" smooth="yes"/>
      <point x="363" y="313"/>
      <point x="345" y="273"/>
      <point x="257" y="271" type="curve"/>
      <point x="257" y="271"/>
      <point x="286" y="267"/>
      <point x="286" y="267" type="curve"/>
      <point x="465" y="265"/>
      <point x="545" y="325"/>
      <point x="545" y="402" type="curve" smooth="yes"/>
      <point x="545" y="469"/>
      <point x="493" y="518"/>
      <point x="338" y="518" type="curve" smooth="yes"/>
    </contour>
  </outline>
</glyph>
<glyph name="uni0438" format="1">
  <advance width="675"/>
  <unicode hex="0438"/>
  <outline>
    <contour>
      <point x="625" y="517"/>
      <point x="560" y="514"/>
      <point x="504" y="514" type="curve" smooth="yes"/>
      <point x="452" y="514"/>
      <point x="397" y="517"/>
      <point x="372" y="518" type="curve"/>
      <point x="372" y="497" type="line"/>
      <point x="406" y="497"/>
      <point x="418" y="481"/>
      <point x="418" y="425" type="curve" smooth="yes"/>
      <point x="418" y="93" type="line" smooth="yes"/>
      <point x="418" y="37"/>
      <point x="406" y="21"/>
      <point x="372" y="21" type="curve"/>
      <point x="372" y="0" type="line"/>
      <point x="399" y="1"/>
      <point x="458" y="4"/>
      <point x="514" y="4" type="curve" smooth="yes"/>
      <point x="566" y="4"/>
      <point x="627" y="1"/>
      <point x="654" y="0" type="curve"/>
      <point x="654" y="21" type="line"/>
      <point x="613" y="21"/>
      <point x="598" y="37"/>
      <point x="598" y="93" type="curve" smooth="yes"/>
      <point x="598" y="425" type="line" smooth="yes"/>
      <point x="598" y="481"/>
      <point x="613" y="497"/>
      <point x="654" y="497" type="curve"/>
      <point x="654" y="518" type="line"/>
    </contour>
    <contour>
      <point x="276" y="517"/>
      <point x="217" y="514"/>
      <point x="161" y="514" type="curve" smooth="yes"/>
      <point x="109" y="514"/>
      <point x="48" y="517"/>
      <point x="21" y="518" type="curve"/>
      <point x="21" y="497" type="line"/>
      <point x="62" y="497"/>
      <point x="77" y="481"/>
      <point x="77" y="425" type="curve" smooth="yes"/>
      <point x="77" y="93" type="line" smooth="yes"/>
      <point x="77" y="37"/>
      <point x="62" y="21"/>
      <point x="21" y="21" type="curve"/>
      <point x="21" y="0" type="line"/>
      <point x="50" y="1"/>
      <point x="115" y="4"/>
      <point x="171" y="4" type="curve" smooth="yes"/>
      <point x="223" y="4"/>
      <point x="278" y="1"/>
      <point x="303" y="0" type="curve"/>
      <point x="303" y="21" type="line"/>
      <point x="269" y="21"/>
      <point x="257" y="37"/>
      <point x="257" y="93" type="curve" smooth="yes"/>
      <point x="257" y="425" type="line" smooth="yes"/>
      <point x="257" y="481"/>
      <point x="269" y="497"/>
      <point x="303" y="497" type="curve"/>
      <point x="303" y="518" type="line"/>
    </contour>
    <contour>
      <point x="218" y="44" type="line"/>
      <point x="236" y="35" type="line"/>
      <point x="448" y="453" type="line"/>
      <point x="431" y="462" type="line"/>
    </contour>
    <contour>
      <point x="338" y="514" type="move" name="top"/>
    </contour>
  </outline>
</glyph>
<glyph name="uni043C" format="1">
  <advance width="765"/>
  <unicode hex="043C"/>
  <outline>
    <contour>
      <point x="714" y="517"/>
      <point x="663" y="514"/>
      <point x="615" y="514" type="curve" smooth="yes"/>
      <point x="584" y="514"/>
      <point x="542" y="514"/>
      <point x="511" y="516" type="curve"/>
      <point x="343" y="111" type="line"/>
      <point x="395" y="202" type="line"/>
      <point x="263" y="519" type="line"/>
      <point x="214" y="517"/>
      <point x="156" y="516"/>
      <point x="91" y="516" type="curve" smooth="yes"/>
      <point x="65" y="516"/>
      <point x="36" y="517"/>
      <point x="18" y="519" type="curve"/>
      <point x="18" y="499" type="line"/>
      <point x="70" y="496"/>
      <point x="79" y="486"/>
      <point x="79" y="413" type="curve" smooth="yes"/>
      <point x="79" y="176" type="line" smooth="yes"/>
      <point x="79" y="93"/>
      <point x="70" y="23"/>
      <point x="18" y="20" type="curve"/>
      <point x="18" y="0" type="line"/>
      <point x="36" y="2"/>
      <point x="65" y="3"/>
      <point x="91" y="3" type="curve" smooth="yes"/>
      <point x="133" y="3"/>
      <point x="172" y="2"/>
      <point x="202" y="0" type="curve"/>
      <point x="202" y="20" type="line"/>
      <point x="118" y="23"/>
      <point x="101" y="83"/>
      <point x="101" y="166" type="curve" smooth="yes"/>
      <point x="101" y="455" type="line"/>
      <point x="301" y="-5" type="line"/>
      <point x="317" y="-5" type="line"/>
      <point x="511" y="461" type="line"/>
      <point x="511" y="93" type="line" smooth="yes"/>
      <point x="511" y="37"/>
      <point x="496" y="21"/>
      <point x="455" y="21" type="curve"/>
      <point x="455" y="0" type="line"/>
      <point x="484" y="1"/>
      <point x="549" y="4"/>
      <point x="605" y="4" type="curve" smooth="yes"/>
      <point x="657" y="4"/>
      <point x="712" y="1"/>
      <point x="737" y="0" type="curve"/>
      <point x="737" y="21" type="line"/>
      <point x="703" y="21"/>
      <point x="691" y="37"/>
      <point x="691" y="93" type="curve" smooth="yes"/>
      <point x="691" y="425" type="line" smooth="yes"/>
      <point x="691" y="481"/>
      <point x="703" y="497"/>
      <point x="737" y="497" type="curve"/>
      <point x="737" y="518" type="line"/>
    </contour>
  </outline>
</glyph>
<glyph name="uni044C" format="1">
  <advance width="584"/>
  <unicode hex="044C"/>
  <outline>
    <contour>
      <point x="281" y="517"/>
      <point x="215" y="514"/>
      <point x="161" y="514" type="curve" smooth="yes"/>
      <point x="107" y="514"/>
      <point x="53" y="517"/>
      <point x="28" y="518" type="curve"/>
      <point x="28" y="497" type="line"/>
      <point x="62" y="497"/>
      <point x="74" y="481"/>
      <point x="74" y="425" type="curve" smooth="yes"/>
      <point x="74" y="93" type="line" smooth="yes"/>
      <point x="74" y="37"/>
      <point x="62" y="21"/>
      <point x="28" y="21" type="curve"/>
      <point x="28" y="0" type="line"/>
      <point x="55" y="1"/>
      <point x="116" y="4"/>
      <point x="166" y="4" type="curve" smooth="yes"/>
      <point x="223" y="4"/>
      <point x="263" y="0"/>
      <point x="306" y="0" type="curve" smooth="yes"/>
      <point x="500" y="0"/>
      <point x="570" y="83"/>
      <point x="570" y="159" type="curve" smooth="yes"/>
      <point x="570" y="239"/>
      <point x="494" y="301"/>
      <point x="324" y="301" type="curve" smooth="yes"/>
      <point x="293" y="301"/>
      <point x="249" y="299"/>
      <point x="192" y="299" type="curve"/>
      <point x="194" y="277" type="line"/>
      <point x="209" y="277"/>
      <point x="235" y="279"/>
      <point x="257" y="279" type="curve" smooth="yes"/>
      <point x="351" y="279"/>
      <point x="386" y="243"/>
      <point x="386" y="148" type="curve" smooth="yes"/>
      <point x="386" y="83"/>
      <point x="368" y="21"/>
      <point x="292" y="21" type="curve" smooth="yes"/>
      <point x="261" y="21"/>
      <point x="254" y="26"/>
      <point x="254" y="58" type="curve" smooth="yes"/>
      <point x="254" y="425" type="line" smooth="yes"/>
      <point x="254" y="481"/>
      <point x="269" y="497"/>
      <point x="310" y="497" type="curve"/>
      <point x="310" y="518" type="line"/>
    </contour>
  </outline>
</glyph>
<glyph name="uni0491" format="1">
  <advance width="458"/>
  <unicode hex="0491"/>
  <outline>
    <contour>
      <point x="419" y="675" type="line"/>
      <point x="397" y="567"/>
      <point x="355" y="523"/>
      <point x="270" y="518" type="curve" smooth="yes"/>
      <point x="239" y="516"/>
      <point x="198" y="514"/>
      <point x="161" y="514" type="curve" smooth="yes"/>
      <point x="109" y="514"/>
      <point x="48" y="517"/>
      <point x="21" y="518" type="curve"/>
      <point x="21" y="497" type="line"/>
      <point x="62" y="497"/>
      <point x="77" y="481"/>
      <point x="77" y="425" type="curve" smooth="yes"/>
      <point x="77" y="93" type="line" smooth="yes"/>
      <point x="77" y="37"/>
      <point x="62" y="21"/>
      <point x="21" y="21" type="curve"/>
      <point x="21" y="0" type="line"/>
      <point x="48" y="1"/>
      <point x="105" y="4"/>
      <point x="159" y="4" type="curve" smooth="yes"/>
      <point x="233" y="4"/>
      <point x="306" y="1"/>
      <point x="343" y="0" type="curve"/>
      <point x="343" y="21" type="line"/>
      <point x="289" y="21"/>
      <point x="257" y="38"/>
      <point x="257" y="103" type="curve" smooth="yes"/>
      <point x="257" y="425" type="line" smooth="yes"/>
      <point x="257" y="481"/>
      <point x="274" y="497"/>
      <point x="333" y="497" type="curve" smooth="yes"/>
      <point x="446" y="497" type="line"/>
      <point x="441" y="544"/>
      <point x="439" y="590"/>
      <point x="439" y="613" type="curve" smooth="yes"/>
      <point x="439" y="637"/>
      <point x="440" y="660"/>
      <point x="442" y="675" type="curve"/>
    </contour>
  </outline>
</glyph>
<glyph name="endash" format="1">
  <advance width="623"/>
  <unicode hex="2013"/>
  <outline>
    <contour>
      <point x="54" y="341" type="line"/>
      <point x="54" y="202" type="line"/>
      <point x="569" y="202" type="line"/>
      <point x="569" y="341" type="line"/>
    </contour>
  </outline>
</glyph>
<glyph name="quotedblbase" format="1">
  <advance width="508"/>
  <unicode hex="201E"/>
  <outline>
    <contour>
      <point x="309" y="158"/>
      <point x="271" y="124"/>
      <point x="271" y="72" type="curve" smooth="yes"/>
      <point x="271" y="17"/>
      <point x="306" y="-14"/>
      <point x="359" y="-14" type="curve" smooth="yes"/>
      <point x="390" y="-14"/>
      <point x="415" y="-3"/>
      <point x="432" y="17" type="curve"/>
      <point x="436" y="-1"/>
      <point x="435" y="-19"/>
      <point x="429" y="-38" type="curve" smooth="yes"/>
      <point x="419" y="-71"/>
      <point x="389" y="-104"/>
      <point x="354" y="-120" type="curve"/>
      <point x="363" y="-138" type="line"/>
      <point x="435" y="-105"/>
      <point x="469" y="-41"/>
      <point x="469" y="26" type="curve" smooth="yes"/>
      <point x="469" y="67"/>
      <point x="458" y="102"/>
      <point x="444" y="121" type="curve" smooth="yes"/>
      <point x="428" y="145"/>
      <point x="400" y="158"/>
      <point x="365" y="158" type="curve" smooth="yes"/>
    </contour>
    <contour>
      <point x="79" y="158"/>
      <point x="41" y="124"/>
      <point x="41" y="72" type="curve" smooth="yes"/>
      <point x="41" y="17"/>
      <point x="76" y="-14"/>
      <point x="129" y="-14" type="curve" smooth="yes"/>
      <point x="160" y="-14"/>
      <point x="185" y="-3"/>
      <point x="202" y="17" type="curve"/>
      <point x="206" y="-1"/>
      <point x="205" y="-19"/>
      <point x="199" y="-38" type="curve" smooth="yes"/>
      <point x="189" y="-71"/>
      <point x="159" y="-104"/>
      <point x="124" y="-120" type="curve"/>
      <point x="133" y="-138" type="line"/>
      <point x="205" y="-105"/>
      <point x="239" y="-41"/>
      <point x="239" y="26" type="curve" smooth="yes"/>
      <point x="239" y="67"/>
      <point x="228" y="102"/>
      <point x="214" y="121" type="curve" smooth="yes"/>
      <point x="198" y="145"/>
      <point x="170" y="158"/>
      <point x="135" y="158" type="curve" smooth="yes"/>
    </contour>
  </outline>
</glyph>
<glyph name="daggerdbl" format="1">
  <advance width="380"/>
  <unicode hex="2021"/>
  <outline>
    <contour>
      <point x="176" y="435" type="line"/>
      <point x="169" y="415"/>
      <point x="170" y="396"/>
      <point x="153" y="385" type="curve"/>
      <point x="153" y="338"/>
      <point x="154" y="349"/>
      <point x="158" y="248" type="curve"/>
      <point x="154" y="147"/>
      <point x="153" y="153"/>
      <point x="153" y="106" type="curve"/>
      <point x="170" y="95"/>
      <point x="169" y="76"/>
      <point x="176" y="56" type="curve"/>
      <point x="190" y="50" type="line"/>
      <point x="204" y="56" type="line"/>
      <point x="210" y="76"/>
      <point x="210" y="95"/>
      <point x="227" y="106" type="curve"/>
      <point x="227" y="153"/>
      <point x="226" y="147"/>
      <point x="222" y="248" type="curve"/>
      <point x="226" y="350"/>
      <point x="227" y="338"/>
      <point x="227" y="385" type="curve"/>
      <point x="210" y="396"/>
      <point x="210" y="415"/>
      <point x="204" y="435" type="curve"/>
      <point x="190" y="441" type="line"/>
    </contour>
    <contour>
      <point x="186" y="21" type="line"/>
      <point x="162" y="7"/>
      <point x="182" y="-121"/>
      <point x="160" y="-121" type="curve"/>
      <point x="160" y="-137"/>
      <point x="165" y="-166"/>
      <point x="190" y="-166" type="curve" smooth="yes"/>
      <point x="215" y="-166"/>
      <point x="220" y="-137"/>
      <point x="220" y="-121" type="curve"/>
      <point x="198" y="-121"/>
      <point x="218" y="7"/>
      <point x="194" y="21" type="curve"/>
    </contour>
    <contour>
      <point x="190" y="36" type="line"/>
      <point x="73" y="61" type="line"/>
      <point x="35" y="36" type="line"/>
      <point x="73" y="11" type="line"/>
      <point x="190" y="35" type="line"/>
      <point x="307" y="11" type="line"/>
      <point x="345" y="36" type="line"/>
      <point x="307" y="61" type="line"/>
    </contour>
    <contour>
      <point x="190" y="455" type="line"/>
      <point x="73" y="480" type="line"/>
      <point x="35" y="455" type="line"/>
      <point x="73" y="430" type="line"/>
      <point x="190" y="454" type="line"/>
      <point x="307" y="430" type="line"/>
      <point x="345" y="455" type="line"/>
      <point x="307" y="480" type="line"/>
    </contour>
    <contour>
      <point x="165" y="657"/>
      <point x="160" y="628"/>
      <point x="160" y="612" type="curve"/>
      <point x="182" y="612"/>
      <point x="162" y="484"/>
      <point x="186" y="470" type="curve"/>
      <point x="194" y="470" type="line"/>
      <point x="218" y="484"/>
      <point x="198" y="612"/>
      <point x="220" y="612" type="curve"/>
      <point x="220" y="628"/>
      <point x="215" y="657"/>
      <point x="190" y="657" type="curve" smooth="yes"/>
    </contour>
  </outline>
</glyph>
<glyph name="bullet" format="1">
  <advance width="515"/>
  <unicode hex="2022"/>
  <outline>
    <contour>
      <point x="154" y="455"/>
      <point x="72" y="372"/>
      <point x="72" y="269" type="curve" smooth="yes"/>
      <point x="72" y="166"/>
      <point x="154" y="84"/>
      <point x="257" y="84" type="curve" smooth="yes"/>
      <point x="360" y="84"/>
      <point x="443" y="166"/>
      <point x="443" y="269" type="curve" smooth="yes"/>
      <point x="443" y="372"/>
      <point x="360" y="455"/>
      <point x="257" y="455" type="curve" smooth="yes"/>
    </contour>
  </outline>
</glyph>
<glyph name="guilsinglleft" format="1">
  <advance width="385"/>
  <unicode hex="2039"/>
  <outline>
    <contour>
      <point x="235" y="439"/>
      <point x="139" y="347"/>
      <point x="22" y="269" type="curve"/>
      <point x="22" y="249" type="line"/>
      <point x="139" y="171"/>
      <point x="235" y="80"/>
      <point x="328" y="-16" type="curve"/>
      <point x="342" y="-12" type="line"/>
      <point x="323" y="72"/>
      <point x="265" y="206"/>
      <point x="221" y="259" type="curve"/>
      <point x="265" y="312"/>
      <point x="323" y="447"/>
      <point x="342" y="531" type="curve"/>
      <point x="328" y="535" type="line"/>
    </contour>
  </outline>
</glyph>
<glyph name="uni2105" format="1">
  <advance width="824"/>
  <unicode hex="2105"/>
  <outline>
    <contour>
      <point x="113" y="754"/>
      <point x="31" y="690"/>
      <point x="31" y="573" type="curve" smooth="yes"/>
      <point x="31" y="459"/>
      <point x="113" y="391"/>
      <point x="237" y="391" type="curve" smooth="yes"/>
      <point x="334" y="391"/>
      <point x="387" y="450"/>
      <point x="407" y="503" type="curve"/>
      <point x="388" y="511" type="line"/>
      <point x="358" y="461"/>
      <point x="317" y="453"/>
      <point x="298" y="453" type="curve" smooth="yes"/>
      <point x="251" y="453"/>
      <point x="197" y="480"/>
      <point x="197" y="590" type="curve" smooth="yes"/>
      <point x="197" y="679"/>
      <point x="224" y="735"/>
      <point x="266" y="735" type="curve" smooth="yes"/>
      <point x="282" y="735"/>
      <point x="291" y="732"/>
      <point x="297" y="728" type="curve"/>
      <point x="262" y="718"/>
      <point x="246" y="688"/>
      <point x="246" y="664" type="curve" smooth="yes"/>
      <point x="246" y="620"/>
      <point x="286" y="597"/>
      <point x="329" y="597" type="curve" smooth="yes"/>
      <point x="376" y="597"/>
      <point x="407" y="623"/>
      <point x="407" y="662" type="curve" smooth="yes"/>
      <point x="407" y="696"/>
      <point x="390" y="715"/>
      <point x="355" y="733" type="curve" smooth="yes"/>
      <point x="325" y="748"/>
      <point x="286" y="754"/>
      <point x="239" y="754" type="curve" smooth="yes"/>
    </contour>
    <component base="fraction" xOffset="379"/>
    <component base="ordmasculine" xOffset="348" yOffset="-374"/>
  </outline>
</glyph>
<glyph name="product" format="1">
  <advance width="819"/>
  <unicode hex="220F"/>
  <outline>
    <contour>
      <point x="750" y="706"/>
      <point x="686" y="705"/>
      <point x="618" y="705" type="curve" smooth="yes"/>
      <point x="572" y="705"/>
      <point x="522" y="708"/>
      <point x="413" y="708" type="curve" smooth="yes"/>
      <point x="297" y="708"/>
      <point x="247" y="705"/>
      <point x="201" y="705" type="curve" smooth="yes"/>
      <point x="133" y="705"/>
      <point x="69" y="706"/>
      <point x="33" y="708" type="curve"/>
      <point x="33" y="688" type="line"/>
      <point x="93" y="685"/>
      <point x="104" y="675"/>
      <point x="104" y="602" type="curve" smooth="yes"/>
      <point x="104" y="-75" type="line" smooth="yes"/>
      <point x="104" y="-148"/>
      <point x="93" y="-158"/>
      <point x="33" y="-161" type="curve"/>
      <point x="33" y="-181" type="line"/>
      <point x="69" y="-179"/>
      <point x="133" y="-178"/>
      <point x="201" y="-178" type="curve" smooth="yes"/>
      <point x="259" y="-178"/>
      <point x="321" y="-179"/>
      <point x="358" y="-181" type="curve"/>
      <point x="358" y="-161" type="line"/>
      <point x="298" y="-158"/>
      <point x="287" y="-148"/>
      <point x="287" y="-75" type="curve" smooth="yes"/>
      <point x="287" y="602" type="line" smooth="yes"/>
      <point x="287" y="675"/>
      <point x="300" y="688"/>
      <point x="368" y="688" type="curve" smooth="yes"/>
      <point x="451" y="688" type="line" smooth="yes"/>
      <point x="519" y="688"/>
      <point x="532" y="675"/>
      <point x="532" y="602" type="curve" smooth="yes"/>
      <point x="532" y="-75" type="line" smooth="yes"/>
      <point x="532" y="-148"/>
      <point x="521" y="-158"/>
      <point x="461" y="-161" type="curve"/>
      <point x="461" y="-181" type="line"/>
      <point x="498" y="-179"/>
      <point x="560" y="-178"/>
      <point x="618" y="-178" type="curve" smooth="yes"/>
      <point x="686" y="-178"/>
      <point x="750" y="-179"/>
      <point x="786" y="-181" type="curve"/>
      <point x="786" y="-161" type="line"/>
      <point x="726" y="-158"/>
      <point x="715" y="-148"/>
      <point x="715" y="-75" type="curve" smooth="yes"/>
      <point x="715" y="602" type="line" smooth="yes"/>
      <point x="715" y="675"/>
      <point x="726" y="685"/>
      <point x="786" y="688" type="curve"/>
      <point x="786" y="708" type="line"/>
    </contour>
  </outline>
</glyph>
<glyph name="Euro.smcp" format="1">
  <advance width="676"/>
  <outline>
    <contour>
      <point x="244" y="622"/>
      <point x="102" y="492"/>
      <point x="102" y="298" type="curve" smooth="yes"/>
      <point x="102" y="99"/>
      <point x="225" y="-14"/>
      <point x="424" y="-14" type="curve" smooth="yes"/>
      <point x="462" y="-14"/>
      <point x="524" y="-10"/>
      <point x="580" y="16" type="curve" smooth="yes"/>
      <point x="612" y="30"/>
      <point x="631" y="58"/>
      <point x="631" y="90" type="curve" smooth="yes"/>
      <point x="631" y="137"/>
      <point x="592" y="167"/>
      <point x="533" y="167" type="curve" smooth="yes"/>
      <point x="478" y="167"/>
      <point x="443" y="142"/>
      <point x="443" y="93" type="curve" smooth="yes"/>
      <point x="443" y="64"/>
      <point x="465" y="28"/>
      <point x="506" y="13" type="curve"/>
      <point x="489" y="8"/>
      <point x="471" y="5"/>
      <point x="441" y="5" type="curve" smooth="yes"/>
      <point x="334" y="5"/>
      <point x="292" y="109"/>
      <point x="292" y="302" type="curve" smooth="yes"/>
      <point x="292" y="489"/>
      <point x="344" y="603"/>
      <point x="441" y="603" type="curve" smooth="yes"/>
      <point x="470" y="603"/>
      <point x="489" y="599"/>
      <point x="506" y="595" type="curve"/>
      <point x="466" y="580"/>
      <point x="443" y="544"/>
      <point x="443" y="515" type="curve" smooth="yes"/>
      <point x="443" y="466"/>
      <point x="478" y="441"/>
      <point x="533" y="441" type="curve" smooth="yes"/>
      <point x="592" y="441"/>
      <point x="631" y="471"/>
      <point x="631" y="518" type="curve" smooth="yes"/>
      <point x="631" y="550"/>
      <point x="610" y="575"/>
      <point x="580" y="592" type="curve" smooth="yes"/>
      <point x="540" y="615"/>
      <point x="492" y="622"/>
      <point x="424" y="622" type="curve" smooth="yes"/>
    </contour>
    <contour>
      <point x="30" y="267" type="line"/>
      <point x="30" y="247" type="line"/>
      <point x="430" y="247" type="line"/>
      <point x="442" y="267" type="line"/>
    </contour>
    <contour>
      <point x="30" y="367" type="line"/>
      <point x="30" y="347" type="line"/>
      <point x="487" y="347" type="line"/>
      <point x="498" y="367" type="line"/>
    </contour>
  </outline>
</glyph>
<glyph name="T_h" format="1">
  <advance width="1208"/>
  <outline>
    <contour>
      <point x="790" y="772"/>
      <point x="733" y="768"/>
      <point x="660" y="768" type="curve"/>
      <point x="660" y="92" type="line" smooth="yes"/>
      <point x="660" y="36"/>
      <point x="645" y="20"/>
      <point x="604" y="20" type="curve"/>
      <point x="604" y="0" type="line"/>
      <point x="633" y="1"/>
      <point x="698" y="4"/>
      <point x="754" y="4" type="curve" smooth="yes"/>
      <point x="806" y="4"/>
      <point x="861" y="1"/>
      <point x="886" y="0" type="curve"/>
      <point x="886" y="20" type="line"/>
      <point x="852" y="20"/>
      <point x="840" y="36"/>
      <point x="840" y="92" type="curve" smooth="yes"/>
      <point x="840" y="409" type="line" smooth="yes"/>
      <point x="840" y="451"/>
      <point x="875" y="481"/>
      <point x="912" y="481" type="curve" smooth="yes"/>
      <point x="947" y="481"/>
      <point x="961" y="460"/>
      <point x="961" y="418" type="curve" smooth="yes"/>
      <point x="961" y="92" type="line" smooth="yes"/>
      <point x="961" y="36"/>
      <point x="949" y="20"/>
      <point x="915" y="20" type="curve"/>
      <point x="915" y="0" type="line"/>
      <point x="942" y="1"/>
      <point x="1001" y="4"/>
      <point x="1057" y="4" type="curve" smooth="yes"/>
      <point x="1109" y="4"/>
      <point x="1170" y="1"/>
      <point x="1197" y="0" type="curve"/>
      <point x="1197" y="20" type="line"/>
      <point x="1156" y="20"/>
      <point x="1141" y="36"/>
      <point x="1141" y="92" type="curve" smooth="yes"/>
      <point x="1141" y="364" type="line" smooth="yes"/>
      <point x="1141" y="432"/>
      <point x="1132" y="469"/>
      <point x="1112" y="493" type="curve" smooth="yes"/>
      <point x="1093" y="516"/>
      <point x="1060" y="533"/>
      <point x="999" y="533" type="curve" smooth="yes"/>
      <point x="927" y="533"/>
      <point x="872" y="511"/>
      <point x="840" y="458" type="curve"/>
      <point x="840" y="782" type="line"/>
    </contour>
    <contour>
      <point x="564" y="705"/>
      <point x="429" y="705"/>
      <point x="329" y="705" type="curve" smooth="yes"/>
      <point x="238" y="705"/>
      <point x="115" y="705"/>
      <point x="23" y="708" type="curve"/>
      <point x="28" y="637"/>
      <point x="27" y="565"/>
      <point x="27" y="530" type="curve" smooth="yes"/>
      <point x="27" y="502"/>
      <point x="26" y="475"/>
      <point x="24" y="458" type="curve"/>
      <point x="47" y="458" type="line"/>
      <point x="80" y="632"/>
      <point x="132" y="685"/>
      <point x="214" y="685" type="curve" smooth="yes"/>
      <point x="227" y="685" type="line"/>
      <point x="227" y="113" type="line" smooth="yes"/>
      <point x="227" y="31"/>
      <point x="208" y="20"/>
      <point x="116" y="20" type="curve"/>
      <point x="116" y="0" type="line"/>
      <point x="161" y="1"/>
      <point x="239" y="3"/>
      <point x="322" y="3" type="curve" smooth="yes"/>
      <point x="409" y="3"/>
      <point x="494" y="1"/>
      <point x="541" y="0" type="curve"/>
      <point x="541" y="20" type="line"/>
      <point x="449" y="20"/>
      <point x="430" y="31"/>
      <point x="430" y="113" type="curve" smooth="yes"/>
      <point x="430" y="685" type="line"/>
      <point x="664" y="685" type="line"/>
      <point x="665" y="708" type="line"/>
    </contour>
    <contour>
      <point x="604" y="257" type="move" name="center"/>
    </contour>
    <contour>
      <point x="604" y="0" type="move" name="bottom"/>
    </contour>
    <contour>
      <point x="604" y="514" type="move" name="top"/>
    </contour>
  </outline>
</glyph>
<glyph name="asciicircum.case" format="1">
  <advance width="442"/>
  <outline>
    <contour>
      <point x="212" y="722" type="line"/>
      <point x="159" y="646"/>
      <point x="70" y="567"/>
      <point x="-25" y="520" type="curve"/>
      <point x="-20" y="505" type="line"/>
      <point x="64" y="525"/>
      <point x="153" y="562"/>
      <point x="201" y="596" type="curve"/>
      <point x="257" y="562"/>
      <point x="362" y="525"/>
      <point x="462" y="505" type="curve"/>
      <point x="467" y="520" type="line"/>
      <point x="371" y="568"/>
      <point x="281" y="647"/>
      <point x="230" y="722" type="curve"/>
    </contour>
  </outline>
</glyph>
<glyph name="dollar.smcp" format="1">
  <advance width="603"/>
  <outline>
    <contour>
      <point x="160" y="622"/>
      <point x="51" y="567"/>
      <point x="51" y="452" type="curve" smooth="yes"/>
      <point x="51" y="330"/>
      <point x="172" y="262"/>
      <point x="245" y="221" type="curve" smooth="yes"/>
      <point x="381" y="150"/>
      <point x="418" y="130"/>
      <point x="418" y="74" type="curve" smooth="yes"/>
      <point x="418" y="31"/>
      <point x="367" y="11"/>
      <point x="305" y="11" type="curve" smooth="yes"/>
      <point x="163" y="11"/>
      <point x="89" y="75"/>
      <point x="73" y="253" type="curve"/>
      <point x="50" y="253" type="line"/>
      <point x="50" y="100"/>
      <point x="49" y="38"/>
      <point x="46" y="-7" type="curve"/>
      <point x="69" y="-7" type="line"/>
      <point x="73" y="22"/>
      <point x="78" y="37"/>
      <point x="92" y="37" type="curve" smooth="yes"/>
      <point x="99" y="37"/>
      <point x="109" y="33"/>
      <point x="126" y="26" type="curve" smooth="yes"/>
      <point x="192" y="-1"/>
      <point x="228" y="-14"/>
      <point x="302" y="-14" type="curve" smooth="yes"/>
      <point x="455" y="-14"/>
      <point x="567" y="42"/>
      <point x="567" y="164" type="curve" smooth="yes"/>
      <point x="567" y="279"/>
      <point x="467" y="338"/>
      <point x="399" y="377" type="curve" smooth="yes"/>
      <point x="228" y="470"/>
      <point x="186" y="494"/>
      <point x="186" y="541" type="curve" smooth="yes"/>
      <point x="186" y="579"/>
      <point x="221" y="598"/>
      <point x="300" y="598" type="curve" smooth="yes"/>
      <point x="419" y="598"/>
      <point x="490" y="545"/>
      <point x="512" y="391" type="curve"/>
      <point x="535" y="391" type="line"/>
      <point x="535" y="529"/>
      <point x="537" y="576"/>
      <point x="540" y="615" type="curve"/>
      <point x="517" y="615" type="line"/>
      <point x="513" y="588"/>
      <point x="509" y="571"/>
      <point x="494" y="571" type="curve" smooth="yes"/>
      <point x="486" y="571"/>
      <point x="477" y="576"/>
      <point x="461" y="585" type="curve" smooth="yes"/>
      <point x="428" y="603"/>
      <point x="383" y="622"/>
      <point x="300" y="622" type="curve" smooth="yes"/>
    </contour>
    <contour>
      <point x="255" y="710" type="line"/>
      <point x="255" y="-102" type="line"/>
      <point x="275" y="-102" type="line"/>
      <point x="275" y="710" type="line"/>
    </contour>
    <contour>
      <point x="339" y="710" type="line"/>
      <point x="339" y="-102" type="line"/>
      <point x="359" y="-102" type="line"/>
      <point x="359" y="710" type="line"/>
    </contour>
  </outline>
</glyph>
<glyph name="e.smcp" format="1">
  <advance width="619"/>
  <outline>
    <contour>
      <point x="499" y="605"/>
      <point x="417" y="605"/>
      <point x="359" y="605" type="curve" smooth="yes"/>
      <point x="291" y="605"/>
      <point x="139" y="605"/>
      <point x="29" y="608" type="curve"/>
      <point x="29" y="588" type="line"/>
      <point x="89" y="585"/>
      <point x="100" y="575"/>
      <point x="100" y="502" type="curve" smooth="yes"/>
      <point x="100" y="106" type="line" smooth="yes"/>
      <point x="100" y="33"/>
      <point x="90" y="23"/>
      <point x="29" y="20" type="curve"/>
      <point x="29" y="0" type="line"/>
      <point x="139" y="3"/>
      <point x="291" y="3"/>
      <point x="359" y="3" type="curve" smooth="yes"/>
      <point x="423" y="3"/>
      <point x="513" y="3"/>
      <point x="578" y="0" type="curve"/>
      <point x="573" y="55"/>
      <point x="571" y="111"/>
      <point x="571" y="138" type="curve" smooth="yes"/>
      <point x="571" y="166"/>
      <point x="572" y="191"/>
      <point x="574" y="210" type="curve"/>
      <point x="551" y="210" type="line"/>
      <point x="522" y="71"/>
      <point x="455" y="23"/>
      <point x="367" y="23" type="curve" smooth="yes"/>
      <point x="344" y="23" type="line" smooth="yes"/>
      <point x="309" y="23"/>
      <point x="293" y="30"/>
      <point x="293" y="76" type="curve" smooth="yes"/>
      <point x="293" y="532" type="line" smooth="yes"/>
      <point x="293" y="578"/>
      <point x="309" y="585"/>
      <point x="344" y="585" type="curve" smooth="yes"/>
      <point x="357" y="585" type="line" smooth="yes"/>
      <point x="442" y="585"/>
      <point x="503" y="542"/>
      <point x="531" y="418" type="curve"/>
      <point x="554" y="418" type="line"/>
      <point x="552" y="433"/>
      <point x="551" y="456"/>
      <point x="551" y="480" type="curve" smooth="yes"/>
      <point x="551" y="505"/>
      <point x="553" y="557"/>
      <point x="558" y="608" type="curve"/>
    </contour>
    <contour>
      <point x="263" y="316" type="line"/>
      <point x="263" y="316"/>
      <point x="263" y="296"/>
      <point x="263" y="296" type="curve"/>
      <point x="403" y="296" type="line"/>
      <point x="403" y="296"/>
      <point x="403" y="316"/>
      <point x="403" y="316" type="curve"/>
    </contour>
    <contour>
      <point x="429" y="428" type="line"/>
      <point x="420" y="382"/>
      <point x="387" y="316"/>
      <point x="316" y="316" type="curve"/>
      <point x="316" y="296" type="line"/>
      <point x="385" y="296"/>
      <point x="423" y="243"/>
      <point x="432" y="184" type="curve"/>
      <point x="455" y="184" type="line"/>
      <point x="450" y="245"/>
      <point x="449" y="279"/>
      <point x="449" y="306" type="curve" smooth="yes"/>
      <point x="449" y="333"/>
      <point x="447" y="367"/>
      <point x="452" y="428" type="curve"/>
    </contour>
    <contour>
      <point x="557" y="0" type="move" name="ogonek"/>
    </contour>
    <contour>
      <point x="336" y="0" type="move" name="bottom"/>
    </contour>
    <contour>
      <point x="306" y="608" type="move" name="top"/>
    </contour>
  </outline>
</glyph>
<glyph name="exclam.smcp" format="1">
  <advance width="321"/>
  <outline>
    <contour>
      <point x="99" y="622"/>
      <point x="55" y="581"/>
      <point x="55" y="516" type="curve" smooth="yes"/>
      <point x="55" y="436"/>
      <point x="142" y="327"/>
      <point x="152" y="196" type="curve"/>
      <point x="170" y="196" type="line"/>
      <point x="180" y="327"/>
      <point x="267" y="436"/>
      <point x="267" y="516" type="curve" smooth="yes"/>
      <point x="267" y="581"/>
      <point x="216" y="622"/>
      <point x="161" y="622" type="curve" smooth="yes"/>
    </contour>
    <component base="period" xOffset="21"/>
  </outline>
</glyph>
<glyph name="exclamdown.case" format="1">
  <advance width="310"/>
  <outline>
    <contour>
      <point x="146" y="503" type="line"/>
      <point x="146" y="340"/>
      <point x="49" y="173"/>
      <point x="49" y="92" type="curve" smooth="yes"/>
      <point x="49" y="17"/>
      <point x="100" y="-14"/>
      <point x="155" y="-14" type="curve" smooth="yes"/>
      <point x="217" y="-14"/>
      <point x="261" y="17"/>
      <point x="261" y="92" type="curve" smooth="yes"/>
      <point x="261" y="173"/>
      <point x="164" y="340"/>
      <point x="164" y="503" type="curve"/>
    </contour>
    <component base="period" xOffset="14" yOffset="565"/>
  </outline>
</glyph>
<glyph name="f_f" format="1">
  <advance width="697"/>
  <outline>
    <contour>
      <point x="256" y="742"/>
      <point x="197" y="723"/>
      <point x="158" y="692" type="curve" smooth="yes"/>
      <point x="108" y="652"/>
      <point x="81" y="587"/>
      <point x="81" y="518" type="curve"/>
      <point x="11" y="518" type="line"/>
      <point x="11" y="498" type="line"/>
      <point x="81" y="498" type="line"/>
      <point x="81" y="93" type="line" smooth="yes"/>
      <point x="81" y="37"/>
      <point x="63" y="21"/>
      <point x="15" y="21" type="curve"/>
      <point x="15" y="0" type="line"/>
      <point x="46" y="1"/>
      <point x="115" y="4"/>
      <point x="177" y="4" type="curve" smooth="yes"/>
      <point x="235" y="4"/>
      <point x="298" y="1"/>
      <point x="327" y="0" type="curve"/>
      <point x="327" y="21" type="line"/>
      <point x="286" y="21"/>
      <point x="271" y="37"/>
      <point x="271" y="93" type="curve" smooth="yes"/>
      <point x="271" y="498" type="line"/>
      <point x="382" y="498" type="line"/>
      <point x="382" y="518" type="line"/>
      <point x="271" y="518" type="line"/>
      <point x="271" y="604" type="line" smooth="yes"/>
      <point x="271" y="682"/>
      <point x="296" y="717"/>
      <point x="352" y="717" type="curve" smooth="yes"/>
      <point x="407" y="717"/>
      <point x="452" y="683"/>
      <point x="467" y="634" type="curve"/>
      <point x="488" y="644" type="line"/>
      <point x="468" y="708"/>
      <point x="403" y="742"/>
      <point x="328" y="742" type="curve" smooth="yes"/>
    </contour>
    <component base="f" xOffset="332"/>
  </outline>
</glyph>
<glyph name="f_f_i" format="1">
  <advance width="1019"/>
  <outline>
    <contour>
      <point x="653" y="782"/>
      <point x="567" y="761"/>
      <point x="512" y="713" type="curve" smooth="yes"/>
      <point x="457" y="665"/>
      <point x="428" y="600"/>
      <point x="428" y="518" type="curve"/>
      <point x="358" y="518" type="line"/>
      <point x="358" y="498" type="line"/>
      <point x="428" y="498" type="line"/>
      <point x="428" y="93" type="line" smooth="yes"/>
      <point x="428" y="37"/>
      <point x="410" y="21"/>
      <point x="362" y="21" type="curve"/>
      <point x="362" y="0" type="line"/>
      <point x="393" y="1"/>
      <point x="457" y="4"/>
      <point x="523" y="4" type="curve" smooth="yes"/>
      <point x="585" y="4"/>
      <point x="651" y="1"/>
      <point x="684" y="0" type="curve"/>
      <point x="684" y="21" type="line"/>
      <point x="636" y="21"/>
      <point x="608" y="36"/>
      <point x="608" y="93" type="curve" smooth="yes"/>
      <point x="608" y="498" type="line"/>
      <point x="699" y="498" type="line" smooth="yes"/>
      <point x="749" y="498"/>
      <point x="765" y="470"/>
      <point x="765" y="410" type="curve" smooth="yes"/>
      <point x="765" y="93" type="line" smooth="yes"/>
      <point x="765" y="37"/>
      <point x="750" y="21"/>
      <point x="709" y="21" type="curve"/>
      <point x="709" y="0" type="line"/>
      <point x="738" y="1"/>
      <point x="802" y="4"/>
      <point x="860" y="4" type="curve" smooth="yes"/>
      <point x="918" y="4"/>
      <point x="982" y="1"/>
      <point x="1011" y="0" type="curve"/>
      <point x="1011" y="21" type="line"/>
      <point x="963" y="21"/>
      <point x="945" y="37"/>
      <point x="945" y="93" type="curve" smooth="yes"/>
      <point x="945" y="530" type="line"/>
      <point x="877" y="520"/>
      <point x="818" y="518"/>
      <point x="699" y="518" type="curve" smooth="yes"/>
      <point x="608" y="518" type="line"/>
      <point x="608" y="631"/>
      <point x="613" y="682"/>
      <point x="661" y="727" type="curve" smooth="yes"/>
      <point x="679" y="743"/>
      <point x="711" y="762"/>
      <point x="754" y="762" type="curve" smooth="yes"/>
      <point x="779" y="762"/>
      <point x="803" y="756"/>
      <point x="813" y="751" type="curve"/>
      <point x="757" y="738"/>
      <point x="725" y="707"/>
      <point x="725" y="664" type="curve" smooth="yes"/>
      <point x="725" y="611"/>
      <point x="764" y="581"/>
      <point x="839" y="581" type="curve" smooth="yes"/>
      <point x="917" y="581"/>
      <point x="953" y="611"/>
      <point x="953" y="666" type="curve" smooth="yes"/>
      <point x="953" y="699"/>
      <point x="933" y="727"/>
      <point x="910" y="741" type="curve" smooth="yes"/>
      <point x="872" y="764"/>
      <point x="828" y="782"/>
      <point x="745" y="782" type="curve" smooth="yes"/>
    </contour>
    <contour>
      <point x="272" y="752"/>
      <point x="203" y="734"/>
      <point x="158" y="692" type="curve"/>
      <point x="109" y="650"/>
      <point x="81" y="587"/>
      <point x="81" y="518" type="curve"/>
      <point x="11" y="518" type="line"/>
      <point x="11" y="498" type="line"/>
      <point x="81" y="498" type="line"/>
      <point x="81" y="93" type="line" smooth="yes"/>
      <point x="81" y="37"/>
      <point x="63" y="21"/>
      <point x="15" y="21" type="curve"/>
      <point x="15" y="0" type="line"/>
      <point x="46" y="1"/>
      <point x="115" y="4"/>
      <point x="177" y="4" type="curve" smooth="yes"/>
      <point x="235" y="4"/>
      <point x="298" y="1"/>
      <point x="327" y="0" type="curve"/>
      <point x="327" y="21" type="line"/>
      <point x="286" y="21"/>
      <point x="271" y="37"/>
      <point x="271" y="93" type="curve" smooth="yes"/>
      <point x="271" y="498" type="line"/>
      <point x="382" y="498" type="line"/>
      <point x="382" y="518" type="line"/>
      <point x="271" y="518" type="line"/>
      <point x="271" y="594" type="line" smooth="yes"/>
      <point x="271" y="690"/>
      <point x="302" y="728"/>
      <point x="366" y="728" type="curve" smooth="yes"/>
      <point x="439" y="728"/>
      <point x="484" y="696"/>
      <point x="510" y="669" type="curve"/>
      <point x="524" y="686" type="line"/>
      <point x="481" y="723"/>
      <point x="433" y="752"/>
      <point x="348" y="752" type="curve" smooth="yes"/>
    </contour>
  </outline>
</glyph>
<glyph name="f_f_j.liga" format="1">
  <advance width="1005"/>
  <outline>
    <contour>
      <point x="653" y="782"/>
      <point x="565" y="763"/>
      <point x="512" y="713" type="curve" smooth="yes"/>
      <point x="459" y="663"/>
      <point x="428" y="600"/>
      <point x="428" y="518" type="curve"/>
      <point x="358" y="518" type="line"/>
      <point x="358" y="498" type="line"/>
      <point x="428" y="498" type="line"/>
      <point x="428" y="93" type="line" smooth="yes"/>
      <point x="428" y="37"/>
      <point x="410" y="21"/>
      <point x="362" y="21" type="curve"/>
      <point x="362" y="0" type="line"/>
      <point x="393" y="1"/>
      <point x="457" y="4"/>
      <point x="523" y="4" type="curve" smooth="yes"/>
      <point x="585" y="4"/>
      <point x="651" y="1"/>
      <point x="684" y="0" type="curve"/>
      <point x="684" y="21" type="line"/>
      <point x="636" y="21"/>
      <point x="608" y="36"/>
      <point x="608" y="93" type="curve" smooth="yes"/>
      <point x="608" y="498" type="line"/>
      <point x="699" y="498" type="line" smooth="yes"/>
      <point x="749" y="498"/>
      <point x="765" y="470"/>
      <point x="765" y="410" type="curve" smooth="yes"/>
      <point x="765" y="80" type="line" smooth="yes"/>
      <point x="765" y="15"/>
      <point x="767" y="-85"/>
      <point x="753" y="-118" type="curve" smooth="yes"/>
      <point x="741" y="-147"/>
      <point x="720" y="-167"/>
      <point x="686" y="-167" type="curve" smooth="yes"/>
      <point x="679" y="-167"/>
      <point x="668" y="-167"/>
      <point x="656" y="-165" type="curve"/>
      <point x="695" y="-156"/>
      <point x="723" y="-136"/>
      <point x="723" y="-102" type="curve" smooth="yes"/>
      <point x="723" y="-59"/>
      <point x="677" y="-37"/>
      <point x="619" y="-37" type="curve" smooth="yes"/>
      <point x="550" y="-37"/>
      <point x="515" y="-75"/>
      <point x="515" y="-110" type="curve" smooth="yes"/>
      <point x="515" y="-140"/>
      <point x="539" y="-162"/>
      <point x="576" y="-174" type="curve" smooth="yes"/>
      <point x="598" y="-181"/>
      <point x="637" y="-188"/>
      <point x="682" y="-188" type="curve" smooth="yes"/>
      <point x="797" y="-188"/>
      <point x="844" y="-166"/>
      <point x="874" y="-138" type="curve" smooth="yes"/>
      <point x="924" y="-91"/>
      <point x="945" y="-38"/>
      <point x="945" y="80" type="curve" smooth="yes"/>
      <point x="945" y="530" type="line"/>
      <point x="877" y="520"/>
      <point x="818" y="518"/>
      <point x="699" y="518" type="curve" smooth="yes"/>
      <point x="608" y="518" type="line"/>
      <point x="608" y="615"/>
      <point x="616" y="656"/>
      <point x="635" y="690" type="curve" smooth="yes"/>
      <point x="659" y="734"/>
      <point x="696" y="762"/>
      <point x="754" y="762" type="curve" smooth="yes"/>
      <point x="779" y="762"/>
      <point x="803" y="756"/>
      <point x="813" y="751" type="curve"/>
      <point x="757" y="738"/>
      <point x="725" y="707"/>
      <point x="725" y="664" type="curve" smooth="yes"/>
      <point x="725" y="611"/>
      <point x="764" y="581"/>
      <point x="839" y="581" type="curve" smooth="yes"/>
      <point x="917" y="581"/>
      <point x="953" y="611"/>
      <point x="953" y="666" type="curve" smooth="yes"/>
      <point x="953" y="698"/>
      <point x="931" y="728"/>
      <point x="908" y="742" type="curve" smooth="yes"/>
      <point x="870" y="765"/>
      <point x="832" y="782"/>
      <point x="731" y="782" type="curve" smooth="yes"/>
    </contour>
    <contour>
      <point x="272" y="752"/>
      <point x="204" y="733"/>
      <point x="158" y="692" type="curve" smooth="yes"/>
      <point x="110" y="649"/>
      <point x="81" y="587"/>
      <point x="81" y="518" type="curve"/>
      <point x="11" y="518" type="line"/>
      <point x="11" y="498" type="line"/>
      <point x="81" y="498" type="line"/>
      <point x="81" y="93" type="line" smooth="yes"/>
      <point x="81" y="37"/>
      <point x="63" y="21"/>
      <point x="15" y="21" type="curve"/>
      <point x="15" y="0" type="line"/>
      <point x="46" y="1"/>
      <point x="115" y="4"/>
      <point x="177" y="4" type="curve" smooth="yes"/>
      <point x="235" y="4"/>
      <point x="298" y="1"/>
      <point x="327" y="0" type="curve"/>
      <point x="327" y="21" type="line"/>
      <point x="286" y="21"/>
      <point x="271" y="37"/>
      <point x="271" y="93" type="curve" smooth="yes"/>
      <point x="271" y="498" type="line"/>
      <point x="382" y="498" type="line"/>
      <point x="382" y="518" type="line"/>
      <point x="271" y="518" type="line"/>
      <point x="271" y="594" type="line" smooth="yes"/>
      <point x="271" y="690"/>
      <point x="302" y="728"/>
      <point x="366" y="728" type="curve" smooth="yes"/>
      <point x="439" y="728"/>
      <point x="484" y="696"/>
      <point x="510" y="669" type="curve"/>
      <point x="524" y="686" type="line"/>
      <point x="481" y="723"/>
      <point x="433" y="752"/>
      <point x="348" y="752" type="curve" smooth="yes"/>
    </contour>
  </outline>
</glyph>
<glyph name="f_f_k.liga" format="1">
  <advance width="1299"/>
  <outline>
    <contour>
      <point x="910" y="781"/>
      <point x="866" y="777"/>
      <point x="835" y="777" type="curve" smooth="yes"/>
      <point x="781" y="777"/>
      <point x="735" y="782"/>
      <point x="691" y="782" type="curve" smooth="yes"/>
      <point x="628" y="782"/>
      <point x="558" y="766"/>
      <point x="506" y="722" type="curve" smooth="yes"/>
      <point x="458" y="681"/>
      <point x="428" y="619"/>
      <point x="428" y="518" type="curve"/>
      <point x="358" y="518" type="line"/>
      <point x="358" y="498" type="line"/>
      <point x="428" y="498" type="line"/>
      <point x="428" y="93" type="line" smooth="yes"/>
      <point x="428" y="37"/>
      <point x="410" y="21"/>
      <point x="362" y="21" type="curve"/>
      <point x="362" y="0" type="line"/>
      <point x="393" y="1"/>
      <point x="457" y="4"/>
      <point x="523" y="4" type="curve" smooth="yes"/>
      <point x="585" y="4"/>
      <point x="651" y="1"/>
      <point x="684" y="0" type="curve"/>
      <point x="684" y="21" type="line"/>
      <point x="636" y="21"/>
      <point x="608" y="36"/>
      <point x="608" y="93" type="curve" smooth="yes"/>
      <point x="608" y="498" type="line"/>
      <point x="699" y="498" type="line"/>
      <point x="699" y="518" type="line"/>
      <point x="608" y="518" type="line"/>
      <point x="608" y="549" type="line" smooth="yes"/>
      <point x="608" y="651"/>
      <point x="611" y="695"/>
      <point x="636" y="726" type="curve" smooth="yes"/>
      <point x="656" y="751"/>
      <point x="676" y="762"/>
      <point x="714" y="762" type="curve" smooth="yes"/>
      <point x="733" y="762"/>
      <point x="745" y="754"/>
      <point x="751" y="747" type="curve" smooth="yes"/>
      <point x="760" y="737"/>
      <point x="765" y="723"/>
      <point x="765" y="694" type="curve" smooth="yes"/>
      <point x="765" y="93" type="line" smooth="yes"/>
      <point x="765" y="37"/>
      <point x="750" y="21"/>
      <point x="709" y="21" type="curve"/>
      <point x="709" y="0" type="line"/>
      <point x="738" y="1"/>
      <point x="802" y="4"/>
      <point x="860" y="4" type="curve" smooth="yes"/>
      <point x="918" y="4"/>
      <point x="982" y="1"/>
      <point x="1011" y="0" type="curve"/>
      <point x="1011" y="21" type="line"/>
      <point x="963" y="21"/>
      <point x="945" y="37"/>
      <point x="945" y="93" type="curve" smooth="yes"/>
      <point x="945" y="784" type="line"/>
    </contour>
    <contour>
      <point x="272" y="752"/>
      <point x="203" y="734"/>
      <point x="158" y="692" type="curve"/>
      <point x="109" y="650"/>
      <point x="81" y="587"/>
      <point x="81" y="518" type="curve"/>
      <point x="11" y="518" type="line"/>
      <point x="11" y="498" type="line"/>
      <point x="81" y="498" type="line"/>
      <point x="81" y="93" type="line" smooth="yes"/>
      <point x="81" y="37"/>
      <point x="63" y="21"/>
      <point x="15" y="21" type="curve"/>
      <point x="15" y="0" type="line"/>
      <point x="46" y="1"/>
      <point x="115" y="4"/>
      <point x="177" y="4" type="curve" smooth="yes"/>
      <point x="235" y="4"/>
      <point x="298" y="1"/>
      <point x="327" y="0" type="curve"/>
      <point x="327" y="21" type="line"/>
      <point x="286" y="21"/>
      <point x="271" y="37"/>
      <point x="271" y="93" type="curve" smooth="yes"/>
      <point x="271" y="498" type="line"/>
      <point x="382" y="498" type="line"/>
      <point x="382" y="518" type="line"/>
      <point x="271" y="518" type="line"/>
      <point x="271" y="594" type="line" smooth="yes"/>
      <point x="271" y="690"/>
      <point x="302" y="728"/>
      <point x="366" y="728" type="curve" smooth="yes"/>
      <point x="439" y="728"/>
      <point x="484" y="696"/>
      <point x="510" y="669" type="curve"/>
      <point x="524" y="686" type="line"/>
      <point x="481" y="723"/>
      <point x="433" y="752"/>
      <point x="348" y="752" type="curve" smooth="yes"/>
    </contour>
    <contour>
      <point x="1251" y="517"/>
      <point x="1181" y="516"/>
      <point x="1140" y="516" type="curve" smooth="yes"/>
      <point x="1108" y="516"/>
      <point x="1058" y="517"/>
      <point x="1020" y="519" type="curve"/>
      <point x="1020" y="499" type="line"/>
      <point x="1092" y="493"/>
      <point x="1134" y="433"/>
      <point x="1065" y="369" type="curve" smooth="yes"/>
      <point x="988" y="297" type="line" smooth="yes"/>
      <point x="975" y="284"/>
      <point x="958" y="282"/>
      <point x="940" y="282" type="curve"/>
      <point x="940" y="263" type="line"/>
      <point x="956" y="263"/>
      <point x="968" y="259"/>
      <point x="977" y="241" type="curve" smooth="yes"/>
      <point x="1065" y="55" type="line" smooth="yes"/>
      <point x="1075" y="34"/>
      <point x="1067" y="21"/>
      <point x="1040" y="21" type="curve"/>
      <point x="1040" y="0" type="line"/>
      <point x="1067" y="1"/>
      <point x="1127" y="4"/>
      <point x="1181" y="4" type="curve" smooth="yes"/>
      <point x="1227" y="4"/>
      <point x="1279" y="1"/>
      <point x="1302" y="0" type="curve"/>
      <point x="1302" y="21" type="line"/>
      <point x="1283" y="31"/>
      <point x="1273" y="53"/>
      <point x="1262" y="73" type="curve" smooth="yes"/>
      <point x="1101" y="379" type="line"/>
      <point x="1094" y="366" type="line"/>
      <point x="1129" y="401" type="line" smooth="yes"/>
      <point x="1179" y="451"/>
      <point x="1229" y="486"/>
      <point x="1277" y="499" type="curve"/>
      <point x="1277" y="519" type="line"/>
    </contour>
  </outline>
</glyph>
<glyph name="f_k.liga" format="1">
  <advance width="952"/>
  <outline>
    <contour>
      <point x="563" y="781"/>
      <point x="519" y="777"/>
      <point x="488" y="777" type="curve" smooth="yes"/>
      <point x="434" y="777"/>
      <point x="388" y="782"/>
      <point x="344" y="782" type="curve" smooth="yes"/>
      <point x="281" y="782"/>
      <point x="211" y="766"/>
      <point x="159" y="722" type="curve" smooth="yes"/>
      <point x="111" y="681"/>
      <point x="81" y="619"/>
      <point x="81" y="518" type="curve"/>
      <point x="11" y="518" type="line"/>
      <point x="11" y="498" type="line"/>
      <point x="81" y="498" type="line"/>
      <point x="81" y="93" type="line" smooth="yes"/>
      <point x="81" y="37"/>
      <point x="63" y="21"/>
      <point x="15" y="21" type="curve"/>
      <point x="15" y="0" type="line"/>
      <point x="46" y="1"/>
      <point x="110" y="4"/>
      <point x="176" y="4" type="curve" smooth="yes"/>
      <point x="238" y="4"/>
      <point x="304" y="1"/>
      <point x="337" y="0" type="curve"/>
      <point x="337" y="21" type="line"/>
      <point x="289" y="21"/>
      <point x="261" y="36"/>
      <point x="261" y="93" type="curve" smooth="yes"/>
      <point x="261" y="498" type="line"/>
      <point x="352" y="498" type="line"/>
      <point x="352" y="518" type="line"/>
      <point x="261" y="518" type="line"/>
      <point x="261" y="545" type="line" smooth="yes"/>
      <point x="261" y="651"/>
      <point x="264" y="695"/>
      <point x="289" y="726" type="curve" smooth="yes"/>
      <point x="309" y="751"/>
      <point x="329" y="762"/>
      <point x="367" y="762" type="curve" smooth="yes"/>
      <point x="386" y="762"/>
      <point x="398" y="754"/>
      <point x="404" y="747" type="curve" smooth="yes"/>
      <point x="413" y="737"/>
      <point x="418" y="723"/>
      <point x="418" y="694" type="curve" smooth="yes"/>
      <point x="418" y="93" type="line" smooth="yes"/>
      <point x="418" y="37"/>
      <point x="403" y="21"/>
      <point x="362" y="21" type="curve"/>
      <point x="362" y="0" type="line"/>
      <point x="391" y="1"/>
      <point x="455" y="4"/>
      <point x="513" y="4" type="curve" smooth="yes"/>
      <point x="571" y="4"/>
      <point x="635" y="1"/>
      <point x="664" y="0" type="curve"/>
      <point x="664" y="21" type="line"/>
      <point x="616" y="21"/>
      <point x="598" y="37"/>
      <point x="598" y="93" type="curve" smooth="yes"/>
      <point x="598" y="784" type="line"/>
    </contour>
    <contour>
      <point x="904" y="517"/>
      <point x="834" y="516"/>
      <point x="793" y="516" type="curve" smooth="yes"/>
      <point x="761" y="516"/>
      <point x="711" y="517"/>
      <point x="673" y="519" type="curve"/>
      <point x="673" y="499" type="line"/>
      <point x="745" y="493"/>
      <point x="787" y="433"/>
      <point x="718" y="369" type="curve" smooth="yes"/>
      <point x="641" y="297" type="line" smooth="yes"/>
      <point x="628" y="284"/>
      <point x="611" y="282"/>
      <point x="593" y="282" type="curve"/>
      <point x="593" y="263" type="line"/>
      <point x="609" y="263"/>
      <point x="621" y="259"/>
      <point x="630" y="241" type="curve" smooth="yes"/>
      <point x="718" y="55" type="line" smooth="yes"/>
      <point x="728" y="34"/>
      <point x="720" y="21"/>
      <point x="693" y="21" type="curve"/>
      <point x="693" y="0" type="line"/>
      <point x="720" y="1"/>
      <point x="780" y="4"/>
      <point x="834" y="4" type="curve" smooth="yes"/>
      <point x="880" y="4"/>
      <point x="932" y="1"/>
      <point x="955" y="0" type="curve"/>
      <point x="955" y="21" type="line"/>
      <point x="936" y="31"/>
      <point x="926" y="53"/>
      <point x="915" y="73" type="curve" smooth="yes"/>
      <point x="754" y="379" type="line"/>
      <point x="747" y="366" type="line"/>
      <point x="782" y="401" type="line" smooth="yes"/>
      <point x="832" y="451"/>
      <point x="882" y="486"/>
      <point x="930" y="499" type="curve"/>
      <point x="930" y="519" type="line"/>
    </contour>
  </outline>
</glyph>
<glyph name="guillemotright.smcp" format="1">
  <advance width="627"/>
  <outline>
    <contour>
      <point x="280" y="577" type="line"/>
      <point x="299" y="493"/>
      <point x="357" y="359"/>
      <point x="401" y="306" type="curve"/>
      <point x="357" y="253"/>
      <point x="299" y="118"/>
      <point x="280" y="34" type="curve"/>
      <point x="294" y="30" type="line"/>
      <point x="387" y="126"/>
      <point x="483" y="218"/>
      <point x="600" y="296" type="curve"/>
      <point x="600" y="316" type="line"/>
      <point x="483" y="394"/>
      <point x="387" y="485"/>
      <point x="294" y="581" type="curve"/>
    </contour>
    <contour>
      <point x="64" y="537" type="line"/>
      <point x="77" y="465"/>
      <point x="123" y="351"/>
      <point x="155" y="306" type="curve"/>
      <point x="123" y="261"/>
      <point x="77" y="146"/>
      <point x="64" y="74" type="curve"/>
      <point x="78" y="70" type="line"/>
      <point x="159" y="150"/>
      <point x="243" y="230"/>
      <point x="344" y="296" type="curve"/>
      <point x="344" y="316" type="line"/>
      <point x="243" y="382"/>
      <point x="159" y="461"/>
      <point x="78" y="541" type="curve"/>
    </contour>
  </outline>
</glyph>
<glyph name="hacek.smcp" format="1">
  <advance width="161"/>
  <outline>
    <contour>
      <point x="148" y="607"/>
      <point x="111" y="603"/>
      <point x="35" y="608" type="curve"/>
      <point x="35" y="587" type="line"/>
      <point x="60" y="587"/>
      <point x="65" y="573"/>
      <point x="65" y="547" type="curve" smooth="yes"/>
      <point x="65" y="527"/>
      <point x="61" y="484"/>
      <point x="45" y="382" type="curve"/>
      <point x="59" y="378" type="line"/>
      <point x="142" y="474"/>
      <point x="196" y="535"/>
      <point x="196" y="578" type="curve" smooth="yes"/>
      <point x="196" y="590"/>
      <point x="194" y="607"/>
      <point x="191" y="614" type="curve"/>
    </contour>
    <contour>
      <point x="25" y="608" type="move" name="_right"/>
    </contour>
  </outline>
</glyph>
<glyph name="n.smcp" format="1">
  <advance width="693"/>
  <outline>
    <contour>
      <point x="648" y="606"/>
      <point x="615" y="605"/>
      <point x="585" y="605" type="curve" smooth="yes"/>
      <point x="539" y="605"/>
      <point x="496" y="606"/>
      <point x="463" y="608" type="curve"/>
      <point x="463" y="588" type="line"/>
      <point x="555" y="575"/>
      <point x="574" y="555"/>
      <point x="574" y="462" type="curve" smooth="yes"/>
      <point x="574" y="244" type="line"/>
      <point x="255" y="608" type="line"/>
      <point x="215" y="606"/>
      <point x="166" y="605"/>
      <point x="113" y="605" type="curve" smooth="yes"/>
      <point x="83" y="605"/>
      <point x="50" y="606"/>
      <point x="30" y="608" type="curve"/>
      <point x="30" y="588" type="line"/>
      <point x="90" y="585"/>
      <point x="101" y="575"/>
      <point x="101" y="502" type="curve" smooth="yes"/>
      <point x="101" y="146" type="line" smooth="yes"/>
      <point x="101" y="53"/>
      <point x="91" y="33"/>
      <point x="30" y="20" type="curve"/>
      <point x="30" y="0" type="line"/>
      <point x="50" y="2"/>
      <point x="83" y="3"/>
      <point x="113" y="3" type="curve" smooth="yes"/>
      <point x="159" y="3"/>
      <point x="202" y="2"/>
      <point x="235" y="0" type="curve"/>
      <point x="235" y="20" type="line"/>
      <point x="143" y="33"/>
      <point x="124" y="53"/>
      <point x="124" y="146" type="curve" smooth="yes"/>
      <point x="124" y="459" type="line"/>
      <point x="524" y="0" type="line"/>
      <point x="548" y="2"/>
      <point x="573" y="2"/>
      <point x="597" y="0" type="curve"/>
      <point x="597" y="462" type="line" smooth="yes"/>
      <point x="597" y="555"/>
      <point x="607" y="575"/>
      <point x="668" y="588" type="curve"/>
      <point x="668" y="608" type="line"/>
    </contour>
    <contour>
      <point x="387" y="608" type="move" name="top"/>
    </contour>
    <contour>
      <point x="365" y="0" type="move" name="bottom"/>
    </contour>
  </outline>
</glyph>
<glyph name="nine.lf" format="1">
  <advance width="638"/>
  <outline>
    <contour>
      <point x="159" y="722"/>
      <point x="39" y="641"/>
      <point x="39" y="482" type="curve" smooth="yes"/>
      <point x="39" y="333"/>
      <point x="145" y="260"/>
      <point x="248" y="260" type="curve" smooth="yes"/>
      <point x="339" y="260"/>
      <point x="406" y="301"/>
      <point x="418" y="435" type="curve"/>
      <point x="406" y="429" type="line"/>
      <point x="389" y="324"/>
      <point x="333" y="290"/>
      <point x="301" y="290" type="curve" smooth="yes"/>
      <point x="256" y="290"/>
      <point x="226" y="347"/>
      <point x="226" y="483" type="curve" smooth="yes"/>
      <point x="226" y="644"/>
      <point x="264" y="702"/>
      <point x="313" y="702" type="curve" smooth="yes"/>
      <point x="358" y="702"/>
      <point x="406" y="643"/>
      <point x="406" y="368" type="curve" smooth="yes"/>
      <point x="406" y="84"/>
      <point x="326" y="5"/>
      <point x="244" y="5" type="curve" smooth="yes"/>
      <point x="223" y="5"/>
      <point x="196" y="9"/>
      <point x="174" y="21" type="curve"/>
      <point x="226" y="36"/>
      <point x="250" y="77"/>
      <point x="250" y="110" type="curve" smooth="yes"/>
      <point x="250" y="166"/>
      <point x="215" y="197"/>
      <point x="160" y="197" type="curve" smooth="yes"/>
      <point x="101" y="197"/>
      <point x="62" y="160"/>
      <point x="62" y="107" type="curve" smooth="yes"/>
      <point x="62" y="71"/>
      <point x="85" y="38"/>
      <point x="116" y="20" type="curve" smooth="yes"/>
      <point x="166" y="-10"/>
      <point x="217" y="-14"/>
      <point x="264" y="-14" type="curve" smooth="yes"/>
      <point x="455" y="-14"/>
      <point x="593" y="144"/>
      <point x="593" y="385" type="curve" smooth="yes"/>
      <point x="593" y="608"/>
      <point x="490" y="722"/>
      <point x="318" y="722" type="curve" smooth="yes"/>
    </contour>
  </outline>
</glyph>
<glyph name="paragraph.smcp" format="1">
  <advance width="773"/>
  <outline>
    <contour>
      <point x="169" y="609"/>
      <point x="29" y="484"/>
      <point x="29" y="310" type="curve" smooth="yes"/>
      <point x="29" y="133"/>
      <point x="142" y="0"/>
      <point x="458" y="0" type="curve"/>
      <point x="458" y="-65" type="line" smooth="yes"/>
      <point x="458" y="-136"/>
      <point x="441" y="-158"/>
      <point x="357" y="-161" type="curve"/>
      <point x="357" y="-181" type="line"/>
      <point x="399" y="-179"/>
      <point x="475" y="-178"/>
      <point x="555" y="-178" type="curve" smooth="yes"/>
      <point x="625" y="-178"/>
      <point x="699" y="-179"/>
      <point x="742" y="-181" type="curve"/>
      <point x="742" y="-161" type="line"/>
      <point x="674" y="-158"/>
      <point x="661" y="-148"/>
      <point x="661" y="-75" type="curve" smooth="yes"/>
      <point x="661" y="521" type="line" smooth="yes"/>
      <point x="661" y="565"/>
      <point x="673" y="586"/>
      <point x="738" y="589" type="curve"/>
      <point x="738" y="608" type="line"/>
      <point x="636" y="602"/>
      <point x="533" y="609"/>
      <point x="407" y="609" type="curve" smooth="yes"/>
    </contour>
    <contour>
      <point x="459" y="552"/>
      <point x="459" y="28"/>
      <point x="459" y="28" type="curve"/>
      <point x="451" y="28"/>
      <point x="417" y="134"/>
      <point x="414" y="267" type="curve"/>
      <point x="248" y="267"/>
      <point x="118" y="284"/>
      <point x="118" y="291" type="curve"/>
      <point x="118" y="298"/>
      <point x="248" y="316"/>
      <point x="414" y="316" type="curve" smooth="yes"/>
      <point x="417" y="448"/>
      <point x="451" y="556"/>
      <point x="459" y="556" type="curve"/>
    </contour>
  </outline>
</glyph>
<glyph name="s.smcp" format="1">
  <advance width="606"/>
  <outline>
    <contour>
      <point x="162" y="622"/>
      <point x="53" y="567"/>
      <point x="53" y="456" type="curve" smooth="yes"/>
      <point x="53" y="359"/>
      <point x="154" y="289"/>
      <point x="267" y="221" type="curve" smooth="yes"/>
      <point x="353" y="168"/>
      <point x="390" y="138"/>
      <point x="390" y="88" type="curve" smooth="yes"/>
      <point x="390" y="32"/>
      <point x="337" y="11"/>
      <point x="287" y="11" type="curve" smooth="yes"/>
      <point x="161" y="11"/>
      <point x="85" y="99"/>
      <point x="75" y="253" type="curve"/>
      <point x="52" y="253" type="line"/>
      <point x="52" y="100"/>
      <point x="51" y="38"/>
      <point x="48" y="-7" type="curve"/>
      <point x="71" y="-7" type="line"/>
      <point x="75" y="22"/>
      <point x="80" y="37"/>
      <point x="93" y="37" type="curve" smooth="yes"/>
      <point x="101" y="37"/>
      <point x="111" y="33"/>
      <point x="128" y="26" type="curve" smooth="yes"/>
      <point x="165" y="11"/>
      <point x="220" y="-14"/>
      <point x="294" y="-14" type="curve" smooth="yes"/>
      <point x="456" y="-14"/>
      <point x="569" y="43"/>
      <point x="569" y="156" type="curve" smooth="yes"/>
      <point x="569" y="263"/>
      <point x="472" y="323"/>
      <point x="381" y="377" type="curve" smooth="yes"/>
      <point x="283" y="439"/>
      <point x="218" y="478"/>
      <point x="218" y="533" type="curve" smooth="yes"/>
      <point x="218" y="572"/>
      <point x="258" y="598"/>
      <point x="322" y="598" type="curve" smooth="yes"/>
      <point x="419" y="598"/>
      <point x="495" y="531"/>
      <point x="514" y="391" type="curve"/>
      <point x="537" y="391" type="line"/>
      <point x="537" y="529"/>
      <point x="539" y="576"/>
      <point x="542" y="615" type="curve"/>
      <point x="519" y="615" type="line"/>
      <point x="515" y="587"/>
      <point x="510" y="571"/>
      <point x="497" y="571" type="curve" smooth="yes"/>
      <point x="488" y="571"/>
      <point x="479" y="576"/>
      <point x="463" y="585" type="curve" smooth="yes"/>
      <point x="430" y="603"/>
      <point x="380" y="622"/>
      <point x="311" y="622" type="curve" smooth="yes"/>
    </contour>
    <contour>
      <point x="313" y="608" type="move" name="top"/>
    </contour>
    <contour>
      <point x="308" y="0" type="move" name="bottom"/>
    </contour>
  </outline>
</glyph>
<glyph name="s_t" format="1">
  <advance width="816"/>
  <outline>
    <contour>
      <point x="665" y="650"/>
      <point x="609" y="637"/>
      <point x="538" y="637" type="curve"/>
      <point x="538" y="518" type="line"/>
      <point x="462" y="518" type="line"/>
      <point x="462" y="498" type="line"/>
      <point x="538" y="498" type="line"/>
      <point x="538" y="159" type="line" smooth="yes"/>
      <point x="538" y="90"/>
      <point x="543" y="49"/>
      <point x="572" y="20" type="curve" smooth="yes"/>
      <point x="595" y="-3"/>
      <point x="631" y="-14"/>
      <point x="675" y="-14" type="curve" smooth="yes"/>
      <point x="744" y="-14"/>
      <point x="789" y="17"/>
      <point x="817" y="65" type="curve"/>
      <point x="802" y="77" type="line"/>
      <point x="784" y="55"/>
      <point x="762" y="48"/>
      <point x="748" y="48" type="curve" smooth="yes"/>
      <point x="726" y="48"/>
      <point x="718" y="58"/>
      <point x="718" y="84" type="curve" smooth="yes"/>
      <point x="718" y="498" type="line"/>
      <point x="816" y="498" type="line"/>
      <point x="816" y="518" type="line"/>
      <point x="718" y="518" type="line"/>
      <point x="718" y="681" type="line"/>
    </contour>
    <contour>
      <point x="132" y="533"/>
      <point x="43" y="478"/>
      <point x="43" y="389" type="curve" smooth="yes"/>
      <point x="43" y="310"/>
      <point x="100" y="261"/>
      <point x="160" y="206" type="curve" smooth="yes"/>
      <point x="213" y="158"/>
      <point x="253" y="125"/>
      <point x="253" y="66" type="curve" smooth="yes"/>
      <point x="253" y="28"/>
      <point x="226" y="11"/>
      <point x="195" y="11" type="curve" smooth="yes"/>
      <point x="122" y="11"/>
      <point x="75" y="87"/>
      <point x="63" y="193" type="curve"/>
      <point x="43" y="193" type="line"/>
      <point x="43" y="92"/>
      <point x="42" y="36"/>
      <point x="39" y="-7" type="curve"/>
      <point x="59" y="-7" type="line"/>
      <point x="64" y="12"/>
      <point x="73" y="28"/>
      <point x="87" y="28" type="curve" smooth="yes"/>
      <point x="102" y="28"/>
      <point x="116" y="22"/>
      <point x="137" y="11" type="curve"/>
      <point x="158" y="-2"/>
      <point x="193" y="-14"/>
      <point x="240" y="-14" type="curve" smooth="yes"/>
      <point x="351" y="-14"/>
      <point x="442" y="49"/>
      <point x="442" y="140" type="curve" smooth="yes"/>
      <point x="442" y="217"/>
      <point x="395" y="259"/>
      <point x="334" y="309" type="curve" smooth="yes"/>
      <point x="277" y="356"/>
      <point x="214" y="393"/>
      <point x="214" y="453" type="curve" smooth="yes"/>
      <point x="214" y="491"/>
      <point x="240" y="509"/>
      <point x="276" y="509" type="curve" smooth="yes"/>
      <point x="312" y="509"/>
      <point x="345" y="495"/>
      <point x="371" y="468" type="curve"/>
      <point x="356" y="440"/>
      <point x="351" y="422"/>
      <point x="351" y="402" type="curve" smooth="yes"/>
      <point x="351" y="373"/>
      <point x="367" y="358"/>
      <point x="386" y="358" type="curve" smooth="yes"/>
      <point x="408" y="358"/>
      <point x="423" y="376"/>
      <point x="423" y="403" type="curve" smooth="yes"/>
      <point x="423" y="449"/>
      <point x="392" y="485"/>
      <point x="355" y="505" type="curve" smooth="yes"/>
      <point x="328" y="520"/>
      <point x="293" y="533"/>
      <point x="231" y="533" type="curve" smooth="yes"/>
    </contour>
    <contour>
      <point x="384" y="782"/>
      <point x="330" y="745"/>
      <point x="330" y="663" type="curve" smooth="yes"/>
      <point x="330" y="579"/>
      <point x="396" y="549"/>
      <point x="376" y="453" type="curve"/>
      <point x="392" y="470" type="line"/>
      <point x="415" y="549"/>
      <point x="353" y="585"/>
      <point x="353" y="664" type="curve" smooth="yes"/>
      <point x="353" y="737"/>
      <point x="395" y="764"/>
      <point x="442" y="764" type="curve" smooth="yes"/>
      <point x="504" y="764"/>
      <point x="538" y="715"/>
      <point x="538" y="631" type="curve"/>
      <point x="555" y="634" type="line"/>
      <point x="555" y="741"/>
      <point x="505" y="782"/>
      <point x="444" y="782" type="curve" smooth="yes"/>
    </contour>
  </outline>
</glyph>
<glyph name="seven.subs" format="1">
  <advance width="326"/>
  <outline>
    <contour>
      <point x="20" y="173"/>
      <point x="16" y="136"/>
      <point x="7" y="85" type="curve"/>
      <point x="24" y="82" type="line"/>
      <point x="33" y="105"/>
      <point x="39" y="116"/>
      <point x="71" y="116" type="curve" smooth="yes"/>
      <point x="268" y="116" type="line"/>
      <point x="311" y="175" type="line"/>
      <point x="246" y="78"/>
      <point x="86" y="-44"/>
      <point x="86" y="-171" type="curve" smooth="yes"/>
      <point x="86" y="-207"/>
      <point x="100" y="-230"/>
      <point x="144" y="-230" type="curve" smooth="yes"/>
      <point x="174" y="-230"/>
      <point x="201" y="-209"/>
      <point x="201" y="-178" type="curve" smooth="yes"/>
      <point x="201" y="-168"/>
      <point x="198" y="-152"/>
      <point x="198" y="-131" type="curve" smooth="yes"/>
      <point x="196" y="9"/>
      <point x="285" y="103"/>
      <point x="321" y="185" type="curve"/>
      <point x="321" y="207" type="line"/>
      <point x="59" y="207" type="line" smooth="yes"/>
      <point x="46" y="207"/>
      <point x="33" y="207"/>
      <point x="21" y="210" type="curve"/>
    </contour>
  </outline>
</glyph>
<glyph name="uni0435.smcp" format="1">
  <advance width="619"/>
  <outline>
    <component base="e.smcp"/>
    <contour>
      <point x="310" y="514" type="move" name="top"/>
    </contour>
  </outline>
</glyph>
<glyph name="uni044E.smcp" format="1">
  <advance width="1085"/>
  <outline>
    <contour>
      <point x="530" y="622"/>
      <point x="394" y="492"/>
      <point x="394" y="298" type="curve" smooth="yes"/>
      <point x="394" y="99"/>
      <point x="525" y="-14"/>
      <point x="721" y="-14" type="curve" smooth="yes"/>
      <point x="913" y="-14"/>
      <point x="1049" y="116"/>
      <point x="1049" y="310" type="curve" smooth="yes"/>
      <point x="1049" y="509"/>
      <point x="918" y="622"/>
      <point x="722" y="622" type="curve" smooth="yes"/>
    </contour>
    <contour>
      <point x="243" y="316" type="line"/>
      <point x="243" y="316"/>
      <point x="243" y="296"/>
      <point x="243" y="296" type="curve"/>
      <point x="458" y="296" type="line"/>
      <point x="458" y="296"/>
      <point x="458" y="316"/>
      <point x="458" y="316" type="curve"/>
    </contour>
    <contour>
      <point x="790" y="604"/>
      <point x="849" y="489"/>
      <point x="849" y="306" type="curve" smooth="yes"/>
      <point x="849" y="129"/>
      <point x="801" y="4"/>
      <point x="725" y="4" type="curve" smooth="yes"/>
      <point x="653" y="4"/>
      <point x="594" y="119"/>
      <point x="594" y="302" type="curve" smooth="yes"/>
      <point x="594" y="479"/>
      <point x="642" y="604"/>
      <point x="718" y="604" type="curve" smooth="yes"/>
    </contour>
    <component base="i.smcp"/>
  </outline>
</glyph>
<glyph name="uni045F.smcp" format="1">
  <advance width="811"/>
  <outline>
    <contour>
      <point x="748" y="606"/>
      <point x="688" y="605"/>
      <point x="624" y="605" type="curve" smooth="yes"/>
      <point x="558" y="605"/>
      <point x="488" y="606"/>
      <point x="447" y="608" type="curve"/>
      <point x="447" y="588" type="line"/>
      <point x="507" y="585"/>
      <point x="518" y="575"/>
      <point x="518" y="502" type="curve" smooth="yes"/>
      <point x="518" y="106" type="line" smooth="yes"/>
      <point x="518" y="33"/>
      <point x="508" y="20"/>
      <point x="447" y="20" type="curve" smooth="yes"/>
      <point x="364" y="20" type="line" smooth="yes"/>
      <point x="304" y="20"/>
      <point x="293" y="33"/>
      <point x="293" y="106" type="curve" smooth="yes"/>
      <point x="293" y="502" type="line" smooth="yes"/>
      <point x="293" y="575"/>
      <point x="303" y="585"/>
      <point x="364" y="588" type="curve"/>
      <point x="364" y="608" type="line"/>
      <point x="323" y="606"/>
      <point x="253" y="605"/>
      <point x="187" y="605" type="curve" smooth="yes"/>
      <point x="123" y="605"/>
      <point x="63" y="606"/>
      <point x="29" y="608" type="curve"/>
      <point x="29" y="588" type="line"/>
      <point x="89" y="585"/>
      <point x="100" y="575"/>
      <point x="100" y="502" type="curve" smooth="yes"/>
      <point x="100" y="106" type="line" smooth="yes"/>
      <point x="100" y="33"/>
      <point x="90" y="23"/>
      <point x="29" y="20" type="curve"/>
      <point x="29" y="0" type="line"/>
      <point x="63" y="2"/>
      <point x="123" y="3"/>
      <point x="187" y="3" type="curve" smooth="yes"/>
      <point x="238" y="3"/>
      <point x="293" y="0"/>
      <point x="406" y="0" type="curve" smooth="yes"/>
      <point x="519" y="0"/>
      <point x="573" y="3"/>
      <point x="624" y="3" type="curve" smooth="yes"/>
      <point x="688" y="3"/>
      <point x="748" y="2"/>
      <point x="782" y="0" type="curve"/>
      <point x="782" y="20" type="line"/>
      <point x="722" y="23"/>
      <point x="711" y="33"/>
      <point x="711" y="106" type="curve" smooth="yes"/>
      <point x="711" y="502" type="line" smooth="yes"/>
      <point x="711" y="575"/>
      <point x="721" y="585"/>
      <point x="782" y="588" type="curve"/>
      <point x="782" y="608" type="line"/>
    </contour>
    <contour>
      <point x="202" y="3" type="line"/>
      <point x="288" y="3"/>
      <point x="380" y="-43"/>
      <point x="396" y="-185" type="curve"/>
      <point x="419" y="-185" type="line"/>
      <point x="435" y="-43"/>
      <point x="527" y="3"/>
      <point x="613" y="3" type="curve"/>
      <point x="407" y="18" type="line"/>
    </contour>
  </outline>
</glyph>
<glyph name="uni0491.smcp" format="1">
  <advance width="523"/>
  <outline>
    <contour>
      <point x="483" y="766" type="line"/>
      <point x="462" y="690"/>
      <point x="394" y="633"/>
      <point x="324" y="614" type="curve" smooth="yes"/>
      <point x="295" y="606"/>
      <point x="238" y="605"/>
      <point x="198" y="605" type="curve" smooth="yes"/>
      <point x="141" y="605"/>
      <point x="81" y="607"/>
      <point x="29" y="608" type="curve"/>
      <point x="29" y="588" type="line"/>
      <point x="90" y="585"/>
      <point x="100" y="575"/>
      <point x="100" y="502" type="curve" smooth="yes"/>
      <point x="100" y="106" type="line" smooth="yes"/>
      <point x="100" y="33"/>
      <point x="90" y="23"/>
      <point x="29" y="20" type="curve"/>
      <point x="29" y="0" type="line"/>
      <point x="67" y="2"/>
      <point x="135" y="3"/>
      <point x="207" y="3" type="curve" smooth="yes"/>
      <point x="281" y="3"/>
      <point x="359" y="2"/>
      <point x="404" y="0" type="curve"/>
      <point x="404" y="20" type="line"/>
      <point x="322" y="23"/>
      <point x="293" y="40"/>
      <point x="293" y="116" type="curve" smooth="yes"/>
      <point x="293" y="512" type="line" smooth="yes"/>
      <point x="293" y="576"/>
      <point x="309" y="585"/>
      <point x="344" y="585" type="curve" smooth="yes"/>
      <point x="404" y="585"/>
      <point x="466" y="585"/>
      <point x="510" y="582" type="curve"/>
      <point x="503" y="624"/>
      <point x="503" y="673"/>
      <point x="503" y="694" type="curve" smooth="yes"/>
      <point x="503" y="722"/>
      <point x="504" y="748"/>
      <point x="506" y="766" type="curve"/>
    </contour>
  </outline>
</glyph>
<glyph name="w.smcp" format="1">
  <advance width="949"/>
  <outline>
    <contour>
      <point x="940" y="606"/>
      <point x="909" y="605"/>
      <point x="883" y="605" type="curve" smooth="yes"/>
      <point x="837" y="605"/>
      <point x="802" y="606"/>
      <point x="752" y="608" type="curve"/>
      <point x="752" y="588" type="line"/>
      <point x="832" y="585"/>
      <point x="862" y="524"/>
      <point x="798" y="350" type="curve" smooth="yes"/>
      <point x="714" y="123" type="line"/>
      <point x="744" y="172" type="line"/>
      <point x="622" y="504" type="line" smooth="yes"/>
      <point x="601" y="563"/>
      <point x="614" y="585"/>
      <point x="670" y="588" type="curve"/>
      <point x="670" y="608" type="line"/>
      <point x="634" y="606"/>
      <point x="570" y="605"/>
      <point x="502" y="605" type="curve" smooth="yes"/>
      <point x="448" y="605"/>
      <point x="389" y="606"/>
      <point x="355" y="608" type="curve"/>
      <point x="355" y="588" type="line"/>
      <point x="373" y="587"/>
      <point x="397" y="567"/>
      <point x="414" y="524" type="curve" smooth="yes"/>
      <point x="629" y="0" type="line"/>
      <point x="651" y="3"/>
      <point x="673" y="3"/>
      <point x="695" y="0" type="curve"/>
      <point x="860" y="448" type="line" smooth="yes"/>
      <point x="891" y="532"/>
      <point x="929" y="573"/>
      <point x="960" y="588" type="curve"/>
      <point x="960" y="608" type="line"/>
    </contour>
    <contour>
      <point x="255" y="606"/>
      <point x="195" y="605"/>
      <point x="131" y="605" type="curve" smooth="yes"/>
      <point x="77" y="605"/>
      <point x="18" y="606"/>
      <point x="-16" y="608" type="curve"/>
      <point x="-16" y="588" type="line"/>
      <point x="2" y="587"/>
      <point x="21" y="570"/>
      <point x="43" y="524" type="curve" smooth="yes"/>
      <point x="278" y="0" type="line"/>
      <point x="300" y="3"/>
      <point x="322" y="3"/>
      <point x="344" y="0" type="curve"/>
      <point x="493" y="390" type="line"/>
      <point x="476" y="407" type="line"/>
      <point x="368" y="132" type="line"/>
      <point x="398" y="181" type="line"/>
      <point x="261" y="504" type="line" smooth="yes"/>
      <point x="240" y="554"/>
      <point x="257" y="585"/>
      <point x="289" y="588" type="curve"/>
      <point x="289" y="608" type="line"/>
    </contour>
    <contour>
      <point x="493" y="608" type="move" name="top"/>
    </contour>
    <contour>
      <point x="502" y="0" type="move" name="bottom"/>
    </contour>
  </outline>
</glyph>
<glyph name="z.smcp" format="1">
  <advance width="581"/>
  <outline>
    <contour>
      <point x="462" y="605"/>
      <point x="378" y="605"/>
      <point x="302" y="605" type="curve" smooth="yes"/>
      <point x="226" y="605"/>
      <point x="120" y="605"/>
      <point x="43" y="608" type="curve"/>
      <point x="48" y="553"/>
      <point x="50" y="497"/>
      <point x="50" y="470" type="curve" smooth="yes"/>
      <point x="50" y="434"/>
      <point x="49" y="399"/>
      <point x="47" y="378" type="curve"/>
      <point x="70" y="378" type="line"/>
      <point x="104" y="530"/>
      <point x="174" y="585"/>
      <point x="294" y="585" type="curve" smooth="yes"/>
      <point x="329" y="585" type="line"/>
      <point x="41" y="20" type="line"/>
      <point x="41" y="0" type="line"/>
      <point x="123" y="3"/>
      <point x="219" y="3"/>
      <point x="304" y="3" type="curve" smooth="yes"/>
      <point x="371" y="3"/>
      <point x="470" y="3"/>
      <point x="538" y="0" type="curve"/>
      <point x="533" y="59"/>
      <point x="531" y="119"/>
      <point x="531" y="148" type="curve" smooth="yes"/>
      <point x="531" y="188"/>
      <point x="532" y="222"/>
      <point x="534" y="250" type="curve"/>
      <point x="511" y="250" type="line"/>
      <point x="476" y="83"/>
      <point x="403" y="23"/>
      <point x="277" y="23" type="curve" smooth="yes"/>
      <point x="247" y="23" type="line"/>
      <point x="535" y="588" type="line"/>
      <point x="535" y="608" type="line"/>
    </contour>
    <contour>
      <point x="292" y="608" type="move" name="top"/>
    </contour>
    <contour>
      <point x="300" y="0" type="move" name="bottom"/>
    </contour>
  </outline>
</glyph>
